<svg width="14" height="14" viewBox="0 0 14 14" fill="none" xmlns="http://www.w3.org/2000/svg">
<path d="M9.50448 3.92929L7 6.43377L4.49552 3.92929L4.4248 3.85858L4.35409 3.92929L3.92929 4.35409L3.85858 4.4248L3.92929 4.49552L6.43377 7L3.92929 9.50448L3.85858 9.5752L3.92929 9.64591L4.35409 10.0707L4.4248 10.1414L4.49552 10.0707L7 7.56623L9.50448 10.0707L9.5752 10.1414L9.64591 10.0707L10.0707 9.64591L10.1414 9.5752L10.0707 9.50448L7.56623 7L10.0707 4.49552L10.1414 4.4248L10.0707 4.35409L9.64591 3.92929L9.5752 3.85858L9.50448 3.92929Z" fill="white" stroke="white" stroke-width="0.2"/>
</svg>
