<svg width="44" height="44" viewBox="0 0 44 44" fill="none" xmlns="http://www.w3.org/2000/svg">
<path fill-rule="evenodd" clip-rule="evenodd" d="M26.05 14C24.484 14 22.981 14.729 22 15.881C21.019 14.729 19.516 14 17.95 14C15.178 14 13 16.178 13 18.95C13 22.352 16.06 25.124 20.695 29.336L22 30.515L23.305 29.327C27.94 25.124 31 22.352 31 18.95C31 16.178 28.822 14 26.05 14ZM22.0899 27.9949L21.9999 28.0849L21.9099 27.9949C17.6259 24.1159 14.7999 21.5509 14.7999 18.9499C14.7999 17.1499 16.1499 15.7999 17.9499 15.7999C19.3359 15.7999 20.6859 16.6909 21.1629 17.9239H22.8459C23.3139 16.6909 24.6639 15.7999 26.0499 15.7999C27.8499 15.7999 29.1999 17.1499 29.1999 18.9499C29.1999 21.5509 26.3739 24.1159 22.0899 27.9949Z" fill="black"/>
</svg>
