<svg width="44" height="44" viewBox="0 0 44 44" fill="none" xmlns="http://www.w3.org/2000/svg">
<path fill-rule="evenodd" clip-rule="evenodd" d="M22.5 17.1449L21.4341 15.8932C20.6556 14.979 19.4541 14.4 18.225 14.4C16.0722 14.4 14.4 16.0722 14.4 18.225C14.4 19.5606 14.988 20.8819 16.3105 22.4999C17.6489 24.1373 19.5886 25.9024 22.0627 28.1507L22.064 28.1519L22.4964 28.5425L22.9371 28.1414C25.4115 25.8976 27.3515 24.1345 28.6898 22.4983C30.012 20.8818 30.6 19.5606 30.6 18.225C30.6 16.0722 28.9278 14.4 26.775 14.4C25.5459 14.4 24.3444 14.979 23.5659 15.8932L22.5 17.1449ZM22.5 30.4325L21.1225 29.188L21.085 29.1539C16.2135 24.727 13 21.8068 13 18.225C13 15.299 15.299 13 18.225 13C19.3954 13 20.5325 13.3858 21.4642 14.0427C21.8484 14.3135 22.1977 14.6305 22.5 14.9855C22.8023 14.6305 23.1516 14.3135 23.5358 14.0427C24.4675 13.3858 25.6046 13 26.775 13C29.701 13 32 15.299 32 18.225C32 21.8131 28.7753 24.7372 23.8895 29.1676L23.8775 29.1785L22.5 30.4325Z" fill="black"/>
</svg>
