<svg width="44" height="44" viewBox="0 0 44 44" fill="none" xmlns="http://www.w3.org/2000/svg">
<path d="M28.9523 23.7168V13.68C28.9523 13.2992 28.6443 13 28.2523 13C27.8603 13 27.5523 13.2992 27.5523 13.68V23.7168C26.5163 24.016 25.7603 24.9408 25.7603 26.056C25.7603 27.144 26.5163 28.096 27.5523 28.368V30.8432C27.5523 31.224 27.8603 31.5232 28.2523 31.5232C28.6443 31.5232 28.9523 31.224 28.9523 30.8432V28.368C29.9883 28.0688 30.7443 27.144 30.7443 26.056C30.7443 24.9408 29.9883 24.016 28.9523 23.7168ZM28.2523 27.0896C27.6363 27.0896 27.1603 26.6 27.1603 26.0288C27.1603 25.4576 27.6363 24.968 28.2523 24.968C28.8683 24.968 29.3443 25.4576 29.3443 26.0288C29.3443 26.6 28.8683 27.0896 28.2523 27.0896Z" fill="black"/>
<path d="M23.3522 15.5568V13.68C23.3522 13.2992 23.0442 13 22.6522 13C22.2602 13 21.9522 13.2992 21.9522 13.68V15.5568C20.9162 15.856 20.1602 16.7808 20.1602 17.896C20.1602 18.984 20.9162 19.936 21.9522 20.208V30.8432C21.9522 31.224 22.2602 31.5232 22.6522 31.5232C23.0442 31.5232 23.3522 31.224 23.3522 30.8432V20.208C24.3882 19.9088 25.1442 18.984 25.1442 17.896C25.1442 16.7808 24.3882 15.856 23.3522 15.5568ZM22.6522 18.9296C22.0362 18.9296 21.5602 18.44 21.5602 17.8688C21.5602 17.2976 22.0362 16.808 22.6522 16.808C23.2682 16.808 23.7442 17.2976 23.7442 17.8688C23.7442 18.44 23.2682 18.9296 22.6522 18.9296Z" fill="black"/>
<path d="M17.192 20.4528V13.68C17.192 13.2992 16.884 13 16.492 13C16.1 13 15.792 13.2992 15.792 13.68V20.4528C14.756 20.752 14 21.6768 14 22.792C14 23.88 14.756 24.832 15.792 25.104V30.8432C15.792 31.224 16.1 31.5232 16.492 31.5232C16.884 31.5232 17.192 31.224 17.192 30.8432V25.104C18.228 24.8048 18.984 23.88 18.984 22.792C18.984 21.6768 18.228 20.752 17.192 20.4528ZM16.492 23.8256C15.876 23.8256 15.4 23.336 15.4 22.7648C15.4 22.1936 15.876 21.704 16.492 21.704C17.108 21.704 17.584 22.1936 17.584 22.7648C17.584 23.336 17.108 23.8256 16.492 23.8256Z" fill="black"/>
</svg>
