<svg width="44" height="44" viewBox="0 0 44 44" fill="none" xmlns="http://www.w3.org/2000/svg">
<path fill-rule="evenodd" clip-rule="evenodd" d="M20.5089 11.2966C21.2209 11.0017 22.0043 10.9245 22.7602 11.0749C23.516 11.2252 24.2102 11.5963 24.7551 12.1412C25.3001 12.6861 25.6712 13.3804 25.8215 14.1362C25.9718 14.892 25.8947 15.6755 25.5998 16.3874C25.3049 17.0994 24.8055 17.7079 24.1647 18.136C23.8062 18.3756 23.4124 18.5527 23 18.6622L23 19.4064L34 25.4064V33H10V25.4219L18.751 20.3834L19.749 22.1166L12 26.5781V31H32V26.5936L21 20.5936L21 16.7927H22C22.3751 16.7927 22.7417 16.6815 23.0536 16.4731C23.3654 16.2647 23.6085 15.9686 23.752 15.6221C23.8955 15.2755 23.9331 14.8942 23.8599 14.5264C23.7868 14.1585 23.6061 13.8206 23.3409 13.5554C23.0757 13.2902 22.7378 13.1096 22.37 13.0364C22.0021 12.9633 21.6208 13.0008 21.2743 13.1444C20.9278 13.2879 20.6316 13.5309 20.4233 13.8428C20.2149 14.1546 20.1037 14.5213 20.1037 14.8964H18.1037C18.1037 14.1257 18.3322 13.3724 18.7603 12.7317C19.1885 12.0909 19.797 11.5915 20.5089 11.2966Z" fill="black"/>
</svg>
