<svg width="44" height="44" viewBox="0 0 44 44" fill="none" xmlns="http://www.w3.org/2000/svg">
<path fill-rule="evenodd" clip-rule="evenodd" d="M19 13C15.134 13 12 16.134 12 20C12 23.866 15.134 27 19 27C22.866 27 26 23.866 26 20C26 16.134 22.866 13 19 13ZM10 20C10 15.0294 14.0294 11 19 11C23.9706 11 28 15.0294 28 20C28 24.9706 23.9706 29 19 29C14.0294 29 10 24.9706 10 20Z" fill="black"/>
<path fill-rule="evenodd" clip-rule="evenodd" d="M25.3431 24.9289L31.7071 31.2929L30.2929 32.7071L23.9289 26.3431L25.3431 24.9289Z" fill="black"/>
</svg>
