<svg width="44" height="44" viewBox="0 0 44 44" fill="none" xmlns="http://www.w3.org/2000/svg">
<path d="M29.3944 21.6125V21.7886C29.3944 21.8474 29.3977 21.9061 29.4042 21.9648V22.141C29.4042 22.1998 29.401 22.2585 29.3944 22.3172L31.9297 23.8932L30.3733 27.6423L27.4661 26.9766C27.3094 27.1463 27.1463 27.3094 26.9766 27.4661L27.6423 30.3733L23.8932 31.9297L22.3172 29.3944H22.141C22.0823 29.3944 22.0236 29.3977 21.9648 29.4042H21.7886C21.7299 29.4042 21.6712 29.401 21.6125 29.3944L20.0365 31.9297L16.2874 30.3733L16.9531 27.4661C16.7834 27.3094 16.6202 27.1463 16.4636 26.9766L13.5564 27.6423L12 23.8932L14.5353 22.3172V22.141C14.5353 22.0823 14.532 22.0236 14.5255 21.9648V21.7886C14.5255 21.7299 14.5287 21.6712 14.5353 21.6125L12 20.0365L13.5564 16.2874L16.4636 16.9531C16.6202 16.7834 16.7834 16.6202 16.9531 16.4636L16.2874 13.5564L20.0365 12L21.6125 14.5353H21.7886C21.8474 14.5353 21.9061 14.532 21.9648 14.5255H22.141C22.1998 14.5255 22.2585 14.5287 22.3172 14.5353L23.8932 12L27.6423 13.5564L26.9766 16.4636C27.1463 16.6202 27.3094 16.7834 27.4661 16.9531L30.3733 16.2874L31.9297 20.0365L29.3944 21.6125ZM28.2492 22.885C28.2622 22.7284 28.2753 22.575 28.2883 22.4249C28.3014 22.2748 28.3079 22.1182 28.3079 21.9551C28.3079 21.805 28.3014 21.6516 28.2883 21.495C28.2753 21.3384 28.2622 21.185 28.2492 21.0349L30.5593 19.596L29.7175 17.56L27.0647 18.1766C26.8624 17.9287 26.6569 17.7003 26.448 17.4914C26.2392 17.2826 26.0076 17.0738 25.7531 16.865L26.3697 14.2122L24.3337 13.3704L22.885 15.6805C22.7349 15.6675 22.5815 15.6544 22.4249 15.6414C22.2683 15.6283 22.1149 15.6218 21.9648 15.6218C21.8082 15.6218 21.6549 15.6283 21.5048 15.6414C21.3547 15.6544 21.1981 15.6675 21.0349 15.6805L19.596 13.3704L17.56 14.2122L18.1766 16.865C17.9287 17.0673 17.7003 17.2728 17.4914 17.4816C17.2826 17.6905 17.0738 17.9221 16.865 18.1766L14.2122 17.56L13.3704 19.596L15.6805 21.0447C15.6675 21.2013 15.6544 21.3547 15.6414 21.5048C15.6283 21.6549 15.6218 21.8115 15.6218 21.9746C15.6218 22.1247 15.6283 22.2781 15.6414 22.4347C15.6544 22.5913 15.6675 22.7447 15.6805 22.8948L13.3704 24.3337L14.2122 26.3697L16.865 25.7531C17.0673 26.001 17.2728 26.2294 17.4816 26.4383C17.6905 26.6471 17.9221 26.8559 18.1766 27.0647L17.56 29.7175L19.596 30.5593L21.0447 28.2492C21.1948 28.2622 21.3482 28.2753 21.5048 28.2883C21.6614 28.3014 21.8148 28.3079 21.9648 28.3079C22.1215 28.3079 22.2748 28.3014 22.4249 28.2883C22.575 28.2753 22.7316 28.2622 22.8948 28.2492L24.3337 30.5593L26.3697 29.7175L25.7531 27.0647C26.001 26.8624 26.2294 26.6569 26.4383 26.448C26.6471 26.2392 26.8559 26.0076 27.0647 25.7531L29.7175 26.3697L30.5593 24.3337L28.2492 22.885ZM21.9648 18.2843C22.4739 18.2843 22.9502 18.3789 23.394 18.5682C23.8377 18.7574 24.2293 19.0217 24.5686 19.3611C24.908 19.7004 25.169 20.0887 25.3517 20.5259C25.5344 20.9631 25.6323 21.4428 25.6454 21.9648C25.6454 22.4739 25.5508 22.9502 25.3615 23.394C25.1723 23.8377 24.908 24.2293 24.5686 24.5686C24.2293 24.908 23.841 25.169 23.4038 25.3517C22.9665 25.5344 22.4869 25.6323 21.9648 25.6454C21.4558 25.6454 20.9795 25.5508 20.5357 25.3615C20.0919 25.1723 19.7004 24.908 19.3611 24.5686C19.0217 24.2293 18.7607 23.841 18.578 23.4038C18.3953 22.9665 18.2974 22.4869 18.2843 21.9648C18.2843 21.4558 18.3789 20.9795 18.5682 20.5357C18.7574 20.0919 19.0217 19.7004 19.3611 19.3611C19.7004 19.0217 20.0887 18.7607 20.5259 18.578C20.9631 18.3953 21.4428 18.2974 21.9648 18.2843ZM21.9648 24.549C22.3238 24.549 22.6598 24.4838 22.9731 24.3533C23.2863 24.2228 23.5604 24.0368 23.7953 23.7953C24.0302 23.5539 24.213 23.2798 24.3435 22.9731C24.474 22.6664 24.5425 22.3303 24.549 21.9648C24.549 21.6059 24.4838 21.2699 24.3533 20.9566C24.2228 20.6434 24.0368 20.3693 23.7953 20.1344C23.5539 19.8994 23.2798 19.7167 22.9731 19.5862C22.6664 19.4557 22.3303 19.3872 21.9648 19.3806C21.6059 19.3806 21.2699 19.4459 20.9566 19.5764C20.6434 19.7069 20.3693 19.8929 20.1344 20.1344C19.8994 20.3758 19.7167 20.6499 19.5862 20.9566C19.4557 21.2633 19.3872 21.5994 19.3806 21.9648C19.3806 22.3238 19.4459 22.6598 19.5764 22.9731C19.7069 23.2863 19.8929 23.5604 20.1344 23.7953C20.3758 24.0302 20.6499 24.213 20.9566 24.3435C21.2633 24.474 21.5994 24.5425 21.9648 24.549Z" fill="black"/>
</svg>
