<svg width="44" height="44" viewBox="0 0 44 44" fill="none" xmlns="http://www.w3.org/2000/svg">
<path fill-rule="evenodd" clip-rule="evenodd" d="M22.2678 10.1654L26.0317 13.9902C26.2898 14.2529 26.2898 14.6823 26.0317 14.9459C25.9067 15.0737 25.741 15.1434 25.5653 15.1434C25.3887 15.1425 25.2248 15.0737 25.0998 14.9459L22.5694 12.3759V26.0769C22.5694 26.4501 22.2732 26.7527 21.9091 26.7527C21.5451 26.7527 21.2489 26.4501 21.2489 26.0769V12.4085L18.7493 14.9459C18.4993 15.2014 18.0655 15.2005 17.8174 14.9468C17.5583 14.6823 17.5583 14.2529 17.8174 13.9902L21.5813 10.1654C21.7986 9.9444 22.0522 9.94531 22.2678 10.1654ZM29.8491 19.7319V32.4147C29.8491 33.2898 29.139 34 28.2642 34H15.5849C14.7091 34 14 33.2898 14 32.4147V19.7319C14 18.8559 14.7091 18.1465 15.5849 18.1465H18.9721V19.5054H16.1881C15.7298 19.5054 15.3585 19.8768 15.3585 20.3352V31.8113C15.3585 32.2688 15.7298 32.6411 16.1881 32.6411H27.661C28.1192 32.6411 28.4906 32.2688 28.4906 31.8113V20.3352C28.4906 19.8768 28.1192 19.5054 27.661 19.5054H24.8679V18.1465H28.2642C29.139 18.1465 29.8491 18.8559 29.8491 19.7319Z" fill="black"/>
</svg>
