<svg width="21" height="11" viewBox="0 0 21 11" fill="none" xmlns="http://www.w3.org/2000/svg">
<path d="M17.4354 5.05266L14.4545 2.07181C14.2695 1.88683 14.2695 1.58691 14.4545 1.40192C14.6395 1.21694 14.9394 1.21694 15.1244 1.40192L18.9139 5.1914C19.0989 5.37638 19.0989 5.6763 18.9139 5.86129L15.1244 9.65076C14.9394 9.83575 14.6395 9.83575 14.4545 9.65076C14.2695 9.46578 14.2695 9.16585 14.4545 8.98087L17.4354 6.00003H2.47368C2.21208 6.00003 2 5.78795 2 5.52634C2 5.26473 2.21208 5.05266 2.47368 5.05266H17.4354Z" fill="black"/>
<path fill-rule="evenodd" clip-rule="evenodd" d="M14.9476 1.5787C14.8603 1.49135 14.7187 1.49135 14.6313 1.5787C14.544 1.66605 14.544 1.80768 14.6313 1.89504L18.0389 5.30266H2.47368C2.35015 5.30266 2.25 5.4028 2.25 5.52634C2.25 5.64988 2.35015 5.75003 2.47368 5.75003H18.0389L14.6313 9.15765C14.544 9.245 14.544 9.38663 14.6313 9.47398C14.7187 9.56134 14.8603 9.56134 14.9476 9.47398L18.7371 5.68451C18.8245 5.59716 18.8245 5.45553 18.7371 5.36817L14.9476 1.5787ZM14.2778 1.22515C14.5604 0.94253 15.0186 0.94253 15.3012 1.22515L19.0907 5.01462C19.3733 5.29724 19.3733 5.75545 19.0907 6.03806L15.3012 9.82754C15.0186 10.1102 14.5604 10.1102 14.2778 9.82754C13.9951 9.54492 13.9951 9.08671 14.2778 8.80409L16.8318 6.25003H2.47368C2.074 6.25003 1.75 5.92602 1.75 5.52634C1.75 5.12666 2.074 4.80266 2.47368 4.80266H16.8318L14.2778 2.24859C13.9951 1.96597 13.9951 1.50776 14.2778 1.22515Z" fill="black"/>
</svg>
