<svg width="158" height="32" viewBox="0 0 158 32" fill="none" xmlns="http://www.w3.org/2000/svg">
<path d="M13 21.6129V11.1668C13.581 11.1668 15.8804 11.1359 16.1771 11.1359C19.0266 11.1359 19.9661 12.5514 19.9661 14.3624C19.9661 16.155 18.8164 17.0512 17.9511 17.3479L21.2209 21.6129H18.9957L16.1153 17.7002H14.8296V21.6129H13ZM14.8358 12.8852V15.9881H16.0287C17.0857 15.9881 18.0314 15.4503 18.0314 14.3748C18.0314 13.5527 17.5864 12.8542 16.0906 12.8542C15.7506 12.8542 15.3303 12.8666 14.8358 12.8852Z" fill="black"/>
<path d="M25.8134 11.1669H31.8585V12.8852H27.6492V15.4813H31.4073V17.1996H27.6492V19.9008H32.0069V21.6191H25.8134V11.1669Z" fill="black"/>
<path d="M37.3845 11.1669H43.3554V12.8852H39.2202V15.8398H42.9042V17.5581H39.2202V21.6191H37.3845V11.1669Z" fill="black"/>
<path d="M50.9149 11.1359H52.5282L56.9476 21.6129H54.9944L53.9065 18.9426H49.4376L48.3497 21.6129H46.5016L50.9149 11.1359ZM50.1361 17.2243H53.1957L51.6752 13.5094L50.1361 17.2243Z" fill="black"/>
<path d="M60.7738 13.8804C60.7738 12.3104 61.9976 11 64.025 11C65.3107 11 66.38 11.4327 67.0105 12.1188L66.0277 13.491C65.5209 12.9965 65.014 12.7183 64.1796 12.7183C63.2709 12.7183 62.7146 13.1819 62.7146 13.868C62.7146 16.0314 67.4432 15.3453 67.4432 18.8253C67.4432 20.5869 65.9041 21.7799 63.9509 21.7799C62.6096 21.7799 61.0396 21.1988 60.5327 20.1357L61.5773 18.8809C62.1892 19.6721 63.172 20.0615 63.9818 20.0615C64.8471 20.0615 65.5023 19.6288 65.5023 18.8376C65.5023 16.7793 60.7738 17.2862 60.7738 13.8804Z" fill="black"/>
<path d="M79.1626 17.1502H74.3846V21.6129H72.5488V11.1669H74.3846V15.438H79.1626V11.1669H80.9798V21.6129H79.1626V17.1502V17.1502Z" fill="black"/>
<path d="M87.0991 11.1669H88.9348V21.6129H87.0991V11.1669Z" fill="black"/>
<path d="M99.6961 11C102.799 11 105.142 13.1325 105.142 16.3899C105.142 19.5237 102.799 21.7799 99.6961 21.7799C96.5932 21.7799 94.2629 19.6474 94.2629 16.3899C94.2629 13.3612 96.4881 11 99.6961 11ZM99.6961 20.0615C101.89 20.0615 103.201 18.4482 103.201 16.3899C103.201 14.2265 101.662 12.7183 99.6961 12.7183C97.6996 12.7183 96.2038 14.2265 96.2038 16.3899C96.2038 18.4791 97.7429 20.0615 99.6961 20.0615Z" fill="black"/>
<path d="M117.72 21.6129L111.972 14.3749V21.6129H110.253V11.1669H111.718L117.461 18.4359V11.1669H119.179V21.6129H117.72Z" fill="black"/>
<path d="M125.07 11.1669H131.115V12.8852H126.905V15.4813H130.67V17.1996H126.905V19.9008H131.263V21.6191H125.07V11.1669Z" fill="black"/>
<path d="M136.641 11.1668H136.832C137.463 11.1668 138.952 11.1235 139.713 11.1235C143.891 11.1235 145.578 13.528 145.578 16.2848C145.578 19.227 143.576 21.6438 139.595 21.6438C138.971 21.6438 137.803 21.6129 136.851 21.6129H136.641V11.1668ZM138.476 12.8852V19.9007C138.983 19.9316 139.404 19.9316 139.657 19.9316C142.179 19.9316 143.644 18.4976 143.644 16.2909C143.644 14.1894 142.179 12.8419 139.688 12.8419C139.255 12.8357 138.897 12.8543 138.476 12.8852Z" fill="black"/>
<path d="M158 32H0V0H158V32ZM1.87858 30.0672H156.121V1.9328H1.87858V30.0672Z" fill="black"/>
</svg>
