<svg width="30" height="30" viewBox="0 0 30 30" fill="none" xmlns="http://www.w3.org/2000/svg">
<path fill-rule="evenodd" clip-rule="evenodd" d="M14.0909 19.5455L14.0909 10.4545L15.9091 10.4545L15.9091 19.5455H14.0909Z" fill="black"/>
<path fill-rule="evenodd" clip-rule="evenodd" d="M19.5455 15.9091H10.4545V14.0909H19.5455V15.9091Z" fill="black"/>
<path fill-rule="evenodd" clip-rule="evenodd" d="M15 6.81818C10.4813 6.81818 6.81818 10.4813 6.81818 15C6.81818 19.5187 10.4813 23.1818 15 23.1818C19.5187 23.1818 23.1818 19.5187 23.1818 15C23.1818 10.4813 19.5187 6.81818 15 6.81818ZM5 15C5 9.47715 9.47715 5 15 5C20.5228 5 25 9.47715 25 15C25 20.5228 20.5228 25 15 25C9.47715 25 5 20.5228 5 15Z" fill="black"/>
</svg>
