<svg width="30" height="30" viewBox="0 0 30 30" fill="none" xmlns="http://www.w3.org/2000/svg">
<path d="M5.95238 7C5.433 7 5 7.433 5 7.95238V10.8095C5 11.3289 5.433 11.7619 5.95238 11.7619H6.19048V22.7143C6.19049 23.2299 6.61205 23.6667 7.14286 23.6667H22.8571C23.388 23.6667 23.8095 23.2299 23.8095 22.7143V11.7619H24.0476C24.567 11.7619 25 11.3289 25 10.8095V7.95238C25 7.433 24.567 7 24.0476 7H5.95238ZM5.95238 7.95238H24.0476V10.8095H5.95238V7.95238ZM7.14286 11.7619H22.8571V22.7143H7.14286V11.7619ZM12.8571 13.7143C12.2059 13.7143 11.6667 14.2536 11.6667 14.9048C11.6667 15.556 12.2059 16.0952 12.8571 16.0952H17.1429C17.7941 16.0952 18.3333 15.556 18.3333 14.9048C18.3333 14.2536 17.7941 13.7143 17.1429 13.7143H12.8571ZM12.8571 14.6667H17.1429C17.2829 14.6667 17.381 14.7647 17.381 14.9048C17.381 15.0448 17.2829 15.1429 17.1429 15.1429H12.8571C12.7171 15.1429 12.619 15.0448 12.619 14.9048C12.619 14.7647 12.7171 14.6667 12.8571 14.6667Z" fill="black" stroke="black" stroke-width="0.3"/>
</svg>
