<svg width="30" height="30" viewBox="0 0 30 30" fill="none" xmlns="http://www.w3.org/2000/svg">
<path d="M23.4375 8C23.6523 8 23.8542 8.03906 24.043 8.11719C24.2318 8.19531 24.3978 8.30924 24.541 8.45898C24.6842 8.60872 24.7949 8.77474 24.873 8.95703C24.9512 9.13932 24.9935 9.34115 25 9.5625V20.1875C25 20.4023 24.9609 20.6042 24.8828 20.793C24.8047 20.9818 24.6908 21.1478 24.541 21.291C24.3913 21.4342 24.2253 21.5449 24.043 21.623C23.8607 21.7012 23.6589 21.7435 23.4375 21.75H6.5625C6.34766 21.75 6.14583 21.7109 5.95703 21.6328C5.76823 21.5547 5.60221 21.4408 5.45898 21.291C5.31576 21.1413 5.20508 20.9753 5.12695 20.793C5.04883 20.6107 5.00651 20.4089 5 20.1875V9.5625C5 9.34766 5.03906 9.14583 5.11719 8.95703C5.19531 8.76823 5.30924 8.60221 5.45898 8.45898C5.60872 8.31576 5.77474 8.20508 5.95703 8.12695C6.13932 8.04883 6.34115 8.00651 6.5625 8H23.4375ZM6.5625 9.25C6.47135 9.25 6.39648 9.2793 6.33789 9.33789C6.2793 9.39648 6.25 9.47135 6.25 9.5625V11.75H23.75V9.5625C23.75 9.47135 23.7207 9.39648 23.6621 9.33789C23.6035 9.2793 23.5286 9.25 23.4375 9.25H6.5625ZM23.4375 20.5C23.5286 20.5 23.6035 20.4707 23.6621 20.4121C23.7207 20.3535 23.75 20.2786 23.75 20.1875V13H6.25V20.1875C6.25 20.2786 6.2793 20.3535 6.33789 20.4121C6.39648 20.4707 6.47135 20.5 6.5625 20.5H23.4375ZM18.75 16.75H21.25V18H18.75V16.75Z" fill="black"/>
</svg>
