<svg width="30" height="30" viewBox="0 0 30 30" fill="none" xmlns="http://www.w3.org/2000/svg">
<path d="M20.5 24H5.5C5.224 24 5 23.775 5 23.5V10.5C5 10.224 5.224 9.99997 5.5 9.99997H20.5C20.775 9.99997 21 10.224 21 10.5V23.5C21 23.775 20.775 24 20.5 24ZM6 23H20V11H6V23Z" fill="black"/>
<path d="M20.5001 24C20.4151 24 20.3301 23.979 20.2521 23.934C20.0121 23.797 19.9301 23.493 20.0641 23.252L24.0001 16.367V6H23.0001C22.7251 6 22.5001 5.776 22.5001 5.5C22.5001 5.224 22.7251 5 23.0001 5H24.5001C24.7751 5 25.0001 5.224 25.0001 5.5V16.5C25.0001 16.587 24.9791 16.672 24.9361 16.748L20.9361 23.748C20.8421 23.91 20.6731 24 20.5001 24Z" fill="black"/>
<path d="M5.50029 11C5.39129 11 5.28029 10.964 5.18829 10.891C4.97329 10.718 4.93829 10.404 5.11029 10.188L9.11029 5.188C9.20529 5.069 9.34829 5 9.50029 5H24.5003C24.6953 5 24.8723 5.113 24.9543 5.29C25.0353 5.467 25.0073 5.675 24.8813 5.824L20.6313 10.824C20.4533 11.034 20.1393 11.061 19.9263 10.881C19.7163 10.702 19.6923 10.387 19.8693 10.176L23.4193 6H9.74029L5.89029 10.813C5.79229 10.936 5.64629 11 5.50029 11V11Z" fill="black"/>
<path d="M14.9999 15.0001H10.9999C10.7239 15.0001 10.4999 14.7761 10.4999 14.5001C10.4999 14.2241 10.7239 14.0001 10.9999 14.0001H14.9999C15.2759 14.0001 15.4999 14.2241 15.4999 14.5001C15.4999 14.7761 15.2759 15.0001 14.9999 15.0001Z" fill="black"/>
<path d="M12.2501 11C12.1351 11 12.0201 10.961 11.9261 10.881C11.7161 10.702 11.6901 10.387 11.8691 10.176L16.1191 5.17603C16.2981 4.96603 16.6141 4.94003 16.8241 5.11903C17.0341 5.29803 17.0601 5.61303 16.8811 5.82403L12.6311 10.824C12.5321 10.94 12.3921 11 12.2501 11Z" fill="black"/>
</svg>
