<svg width="30" height="30" viewBox="0 0 30 30" fill="none" xmlns="http://www.w3.org/2000/svg">
<path d="M23.7097 23.3293H6.26951C5.49948 23.3293 5 22.7524 5 21.8663V10.4508C5 9.54416 5.74922 8.80236 6.66493 8.80236H10.2237C10.2653 8.71994 10.3278 8.63752 10.3694 8.53449C10.5775 8.18419 10.8689 7.66905 11.1186 7.21573C11.4516 6.57696 11.8887 6.28848 12.18 6.14424C12.3881 6.04121 12.6171 6 12.8668 6H17.1332C17.3829 6 17.6119 6.04121 17.82 6.14424C18.1113 6.28848 18.5484 6.57696 18.8814 7.21573C19.1103 7.68966 19.4225 8.2048 19.6306 8.55509C19.693 8.65812 19.7347 8.74054 19.7763 8.82297H23.3351C24.2508 8.82297 25 9.56477 25 10.4714V21.9075C24.9792 22.7523 24.4797 23.3293 23.7097 23.3293ZM6.64412 9.83264C6.31113 9.83264 6.01977 10.1211 6.01977 10.4508V21.8869C6.01977 22.3196 6.20708 22.3196 6.2487 22.3196H23.6889C23.7513 22.3196 23.9178 22.3196 23.9178 21.8869V10.4508C23.9178 10.1211 23.6472 9.83264 23.2934 9.83264H19.7347C19.3809 9.83264 19.0271 9.64719 18.8814 9.35871C18.8606 9.2969 18.7773 9.19387 18.6941 9.04963C18.486 8.69933 18.1738 8.16359 17.924 7.66905C17.7367 7.29815 17.5078 7.13331 17.3413 7.05089C17.2789 7.03028 17.1956 7.00967 17.1124 7.00967H12.8668C12.7836 7.00967 12.7003 7.03028 12.6379 7.05089C12.4922 7.13331 12.2633 7.29815 12.0552 7.66905C11.8054 8.14298 11.4932 8.67873 11.2851 9.04963C11.2019 9.19387 11.1394 9.2969 11.0978 9.37932C10.9729 9.64719 10.6191 9.83264 10.2653 9.83264H6.64412ZM10.1821 8.88478C10.1821 8.88478 10.1613 8.88478 10.1821 8.88478C10.1613 8.88478 10.1821 8.88478 10.1821 8.88478Z" fill="black"/>
<path d="M22.6627 10.6248H20.7708C20.5749 10.6248 20.416 10.7836 20.416 10.9796C20.416 11.1755 20.5749 11.3343 20.7708 11.3343H22.6627C22.8587 11.3343 23.0175 11.1755 23.0175 10.9796C23.0175 10.7836 22.8587 10.6248 22.6627 10.6248Z" fill="black" stroke="black" stroke-width="0.2"/>
<path fill-rule="evenodd" clip-rule="evenodd" d="M15.1305 19.8744C12.8919 19.8744 11.1664 18.1489 11.1664 15.9103C11.1664 13.8919 12.8919 12.1664 15.1305 12.1664C17.1489 12.1664 18.8744 13.8919 18.8744 15.9103C18.8744 18.1489 17.1489 19.8744 15.1305 19.8744ZM18.1036 15.9103C18.1036 17.765 16.8218 19.1036 15.1305 19.1036C13.2467 19.1036 11.9098 17.7942 11.9098 15.9103C11.9098 14.2191 13.2759 12.9372 15.1305 12.9372C16.7942 12.9372 18.1036 14.2467 18.1036 15.9103Z" fill="black" stroke="black" stroke-width="0.2"/>
</svg>
