<svg width="30" height="30" viewBox="0 0 30 30" fill="none" xmlns="http://www.w3.org/2000/svg">
<path d="M23.7097 23.3293H6.26951C5.49948 23.3293 5 22.7524 5 21.8663V10.4508C5 9.54416 5.74922 8.80236 6.66493 8.80236H10.2237C10.2653 8.71994 10.3278 8.63752 10.3694 8.53449C10.5775 8.18419 10.8689 7.66905 11.1186 7.21573C11.4516 6.57696 11.8887 6.28848 12.18 6.14424C12.3881 6.04121 12.6171 6 12.8668 6H17.1332C17.3829 6 17.6119 6.04121 17.82 6.14424C18.1113 6.28848 18.5484 6.57696 18.8814 7.21573C19.1103 7.68966 19.4225 8.2048 19.6306 8.55509C19.693 8.65812 19.7347 8.74054 19.7763 8.82297H23.3351C24.2508 8.82297 25 9.56477 25 10.4714V21.9075C24.9792 22.7524 24.4797 23.3293 23.7097 23.3293ZM6.64412 9.83264C6.31113 9.83264 6.01977 10.1211 6.01977 10.4508V21.8869C6.01977 22.3196 6.20708 22.3196 6.2487 22.3196H23.6889C23.7513 22.3196 23.9178 22.3196 23.9178 21.8869V10.4508C23.9178 10.1211 23.6472 9.83264 23.2934 9.83264H19.7347C19.3809 9.83264 19.0271 9.64719 18.8814 9.35871C18.8606 9.2969 18.7773 9.19387 18.6941 9.04963C18.486 8.69933 18.1738 8.16359 17.924 7.66905C17.7367 7.29815 17.5078 7.13331 17.3413 7.05089C17.2789 7.03028 17.1956 7.00967 17.1124 7.00967H12.8668C12.7836 7.00967 12.7003 7.03028 12.6379 7.05089C12.4922 7.13331 12.2633 7.29815 12.0552 7.66905C11.8054 8.14298 11.4932 8.67873 11.2851 9.04963C11.2019 9.19387 11.1394 9.2969 11.0978 9.37932C10.9729 9.64719 10.6191 9.83264 10.2653 9.83264H6.64412ZM10.1821 8.88478C10.1821 8.88478 10.1613 8.88478 10.1821 8.88478C10.1613 8.88478 10.1821 8.88478 10.1821 8.88478Z" fill="black"/>
<path fill-rule="evenodd" clip-rule="evenodd" d="M15.0728 18.8991C13.3455 18.8991 11.9303 17.5597 11.847 15.87H12.513C12.7003 15.87 12.8044 15.6434 12.7003 15.4991L11.6389 14.1392C11.5141 13.9743 11.2435 13.9743 11.0978 14.1392L10.0156 15.5197C9.89074 15.664 9.9948 15.8906 10.2029 15.8906H10.8273C10.9313 18.1367 12.8044 19.9293 15.0937 19.9293C15.8845 19.9293 16.6337 19.7027 17.2789 19.3318C17.5702 19.1669 17.6119 18.7754 17.3829 18.5282C17.2164 18.3633 16.9459 18.3427 16.7586 18.4663C16.2591 18.7342 15.6764 18.8991 15.0728 18.8991Z" fill="black"/>
<path fill-rule="evenodd" clip-rule="evenodd" d="M14.9063 12.2641C16.6337 12.2641 18.0489 13.6034 18.1321 15.2931H17.4662C17.2789 15.2931 17.1748 15.5198 17.2789 15.664L18.3403 17.0446C18.4651 17.2094 18.7357 17.2094 18.8814 17.0446L19.9636 15.664C20.0884 15.5198 19.9844 15.2931 19.7763 15.2931H19.1519C19.0479 13.0471 17.1748 11.2544 14.8855 11.2544C14.0947 11.2544 13.3455 11.4811 12.7003 11.852C12.4089 12.0168 12.3673 12.4083 12.5962 12.6556C12.7627 12.8204 13.0333 12.841 13.2206 12.7174C13.7201 12.4289 14.3028 12.2641 14.9063 12.2641Z" fill="black"/>
</svg>
