<svg width="30" height="30" viewBox="0 0 30 30" fill="none" xmlns="http://www.w3.org/2000/svg">
<path fill-rule="evenodd" clip-rule="evenodd" d="M23.4271 7.84271H5V6H23.4271V7.84271Z" fill="black"/>
<path fill-rule="evenodd" clip-rule="evenodd" d="M11.4495 13.3709H5V11.5281H11.4495V13.3709Z" fill="black"/>
<path fill-rule="evenodd" clip-rule="evenodd" d="M11.4495 18.899H5V17.0563H11.4495V18.899Z" fill="black"/>
<path fill-rule="evenodd" clip-rule="evenodd" d="M19.7417 24.4271H5V22.5844H19.7417V24.4271Z" fill="black"/>
<path fill-rule="evenodd" clip-rule="evenodd" d="M23.697 22.3146L20.0116 18.6291L21.3146 17.3261L25 21.0116L23.697 22.3146Z" fill="black"/>
<path fill-rule="evenodd" clip-rule="evenodd" d="M18.3597 11.5281C16.5787 11.5281 15.1349 12.9719 15.1349 14.7529C15.1349 16.5339 16.5787 17.9776 18.3597 17.9776C20.1407 17.9776 21.5844 16.5339 21.5844 14.7529C21.5844 12.9719 20.1407 11.5281 18.3597 11.5281ZM13.2922 14.7529C13.2922 11.9542 15.561 9.68542 18.3597 9.68542C21.1584 9.68542 23.4272 11.9542 23.4272 14.7529C23.4272 17.5516 21.1584 19.8204 18.3597 19.8204C15.561 19.8204 13.2922 17.5516 13.2922 14.7529Z" fill="black"/>
</svg>
