<svg width="30" height="30" viewBox="0 0 30 30" fill="none" xmlns="http://www.w3.org/2000/svg">
<path d="M16.3523 15L24.5498 23.1976L23.1975 24.5498L15 16.3523L6.80245 24.5498L5.45018 23.1976L13.6477 15L5.45018 6.80246L6.80245 5.45019L15 13.6477L23.1975 5.45019L24.5498 6.80246L16.3523 15Z" fill="black"/>
<path fill-rule="evenodd" clip-rule="evenodd" d="M16.3523 15L24.5498 23.1975L23.1975 24.5498L15 16.3523L6.80245 24.5498L5.45018 23.1975L13.6477 15L5.45018 6.80245L6.80245 5.45018L15 13.6477L23.1975 5.45018L24.5498 6.80245L16.3523 15ZM15 13.1975L23.1975 5L25 6.80245L16.8025 15L25 23.1975L23.1975 25L15 16.8025L6.80245 25L5 23.1975L13.1975 15L5 6.80245L6.80245 5L15 13.1975Z" fill="black"/>
</svg>
