<svg width="30" height="30" viewBox="0 0 30 30" fill="none" xmlns="http://www.w3.org/2000/svg">
<path d="M17.19 17.19L9 21L12.81 12.81L21 9L17.19 17.19ZM15 5C13.6868 5 12.3864 5.25866 11.1732 5.7612C9.95991 6.26375 8.85752 7.00035 7.92893 7.92893C6.05357 9.8043 5 12.3478 5 15C5 17.6522 6.05357 20.1957 7.92893 22.0711C8.85752 22.9997 9.95991 23.7362 11.1732 24.2388C12.3864 24.7413 13.6868 25 15 25C17.6522 25 20.1957 23.9464 22.0711 22.0711C23.9464 20.1957 25 17.6522 25 15C25 13.6868 24.7413 12.3864 24.2388 11.1732C23.7362 9.95991 22.9997 8.85752 22.0711 7.92893C21.1425 7.00035 20.0401 6.26375 18.8268 5.7612C17.6136 5.25866 16.3132 5 15 5ZM15 13.9C14.7083 13.9 14.4285 14.0159 14.2222 14.2222C14.0159 14.4285 13.9 14.7083 13.9 15C13.9 15.2917 14.0159 15.5715 14.2222 15.7778C14.4285 15.9841 14.7083 16.1 15 16.1C15.2917 16.1 15.5715 15.9841 15.7778 15.7778C15.9841 15.5715 16.1 15.2917 16.1 15C16.1 14.7083 15.9841 14.4285 15.7778 14.2222C15.5715 14.0159 15.2917 13.9 15 13.9Z" fill="black"/>
</svg>
