<svg width="30" height="30" viewBox="0 0 30 30" fill="none" xmlns="http://www.w3.org/2000/svg">
<path d="M11.0938 13.375C11.0938 13.6094 11.0482 13.8307 10.957 14.0391C10.8659 14.2474 10.7422 14.4297 10.5859 14.5859C10.4297 14.7422 10.2474 14.8659 10.0391 14.957C9.83073 15.0482 9.60938 15.0938 9.375 15.0938C9.14062 15.0938 8.91927 15.0482 8.71094 14.957C8.5026 14.8659 8.32031 14.7422 8.16406 14.5859C8.00781 14.4297 7.88411 14.2474 7.79297 14.0391C7.70182 13.8307 7.65625 13.6094 7.65625 13.375C7.65625 13.1406 7.70182 12.9193 7.79297 12.7109C7.88411 12.5026 8.00781 12.3203 8.16406 12.1641C8.32031 12.0078 8.5026 11.8841 8.71094 11.793C8.91927 11.7018 9.14062 11.6562 9.375 11.6562C9.60938 11.6562 9.83073 11.7018 10.0391 11.793C10.2474 11.8841 10.4297 12.0078 10.5859 12.1641C10.7422 12.3203 10.8659 12.5026 10.957 12.7109C11.0482 12.9193 11.0938 13.1406 11.0938 13.375ZM9.375 14.1562C9.58984 14.1562 9.77214 14.0814 9.92188 13.9316C10.0716 13.7819 10.1497 13.5964 10.1562 13.375C10.1562 13.1602 10.0814 12.9779 9.93164 12.8281C9.7819 12.6784 9.59635 12.6003 9.375 12.5938C9.16016 12.5938 8.97786 12.6686 8.82812 12.8184C8.67839 12.9681 8.60026 13.1536 8.59375 13.375C8.59375 13.5898 8.66862 13.7721 8.81836 13.9219C8.9681 14.0716 9.15365 14.1497 9.375 14.1562ZM14.375 15.4062C14.6094 15.4062 14.8307 15.4518 15.0391 15.543C15.2474 15.6341 15.4297 15.7578 15.5859 15.9141C15.7422 16.0703 15.8659 16.2526 15.957 16.4609C16.0482 16.6693 16.0938 16.8906 16.0938 17.125C16.0938 17.3594 16.0482 17.5807 15.957 17.7891C15.8659 17.9974 15.7422 18.1797 15.5859 18.3359C15.4297 18.4922 15.2474 18.6159 15.0391 18.707C14.8307 18.7982 14.6094 18.8438 14.375 18.8438C14.1406 18.8438 13.9193 18.7982 13.7109 18.707C13.5026 18.6159 13.3203 18.4922 13.1641 18.3359C13.0078 18.1797 12.8841 17.9974 12.793 17.7891C12.7018 17.5807 12.6562 17.3594 12.6562 17.125C12.6562 16.8906 12.7018 16.6693 12.793 16.4609C12.8841 16.2526 13.0078 16.0703 13.1641 15.9141C13.3203 15.7578 13.5026 15.6341 13.7109 15.543C13.9193 15.4518 14.1406 15.4062 14.375 15.4062ZM14.375 17.9062C14.5898 17.9062 14.7721 17.8314 14.9219 17.6816C15.0716 17.5319 15.1497 17.3464 15.1562 17.125C15.1562 16.9102 15.0814 16.7279 14.9316 16.5781C14.7819 16.4284 14.5964 16.3503 14.375 16.3438C14.1602 16.3438 13.9779 16.4186 13.8281 16.5684C13.6784 16.7181 13.6003 16.9036 13.5938 17.125C13.5938 17.3398 13.6686 17.5221 13.8184 17.6719C13.9681 17.8216 14.1536 17.8997 14.375 17.9062ZM13.2227 11.5H14.2773L10.5273 19H9.47266L13.2227 11.5ZM18.75 9L25 15.25L18.75 21.5H5V9H18.75ZM18.2324 20.25L23.2324 15.25L18.2324 10.25H6.25V20.25H18.2324ZM20 14.625C20.1693 14.625 20.3158 14.6868 20.4395 14.8105C20.5632 14.9342 20.625 15.0807 20.625 15.25C20.625 15.4193 20.5632 15.5658 20.4395 15.6895C20.3158 15.8132 20.1693 15.875 20 15.875C19.8307 15.875 19.6842 15.8132 19.5605 15.6895C19.4368 15.5658 19.375 15.4193 19.375 15.25C19.375 15.0807 19.4368 14.9342 19.5605 14.8105C19.6842 14.6868 19.8307 14.625 20 14.625Z" fill="black"/>
</svg>
