<svg width="30" height="30" viewBox="0 0 30 30" fill="none" xmlns="http://www.w3.org/2000/svg">
<path d="M18.0167 19.9919H10.1443C9.95547 19.9919 9.80242 19.8388 9.80242 19.65C9.80242 19.4612 9.95547 19.3082 10.1443 19.3082H18.0167C18.1479 19.3082 18.2542 19.2019 18.2542 19.0707V8.92119C18.2542 8.79003 18.1479 8.6837 18.0167 8.6837H4.92119C4.79003 8.6837 4.6837 8.79003 4.6837 8.92119V19.0707C4.6837 19.2019 4.79003 19.3082 4.92119 19.3082H5.64187C5.83067 19.3082 5.98372 19.4612 5.98372 19.65C5.98372 19.8388 5.83067 19.9919 5.64187 19.9919H4.92119C4.41262 19.9914 4.00045 19.5793 4 19.0707V8.92119C4.00045 8.41262 4.41262 8.00045 4.92119 8H18.0167C18.5253 8.00045 18.9374 8.41262 18.9379 8.92119V19.0707C18.9374 19.5793 18.5253 19.9914 18.0167 19.9919Z" fill="black"/>
<path d="M25.1281 19.9919H24.377C24.1882 19.9919 24.0352 19.8388 24.0352 19.65C24.0352 19.4612 24.1882 19.3082 24.377 19.3082H25.1281C25.2307 19.3082 25.3138 19.225 25.3138 19.1225V15.7763C25.3139 15.73 25.2966 15.6854 25.2653 15.6514L21.814 11.8935C21.7788 11.8554 21.7294 11.8337 21.6776 11.8335H19.1235C19.021 11.8335 18.9378 11.9166 18.9378 12.0192V19.1225C18.9378 19.225 19.021 19.3082 19.1235 19.3082H19.8746C20.0634 19.3082 20.2165 19.4612 20.2165 19.65C20.2165 19.8388 20.0634 19.9919 19.8746 19.9919H19.1235C18.6436 19.9914 18.2546 19.6024 18.2541 19.1225V12.0192C18.2546 11.5392 18.6436 11.1502 19.1235 11.1498H21.68C21.9234 11.1502 22.1555 11.2524 22.3202 11.4316L25.7715 15.1887C25.9189 15.3489 26.0004 15.5587 26 15.7763V19.1225C25.9998 19.3534 25.9078 19.5748 25.7442 19.7379C25.5807 19.9009 25.3591 19.9923 25.1281 19.9919Z" fill="black"/>
<path d="M7.89353 22.2427C6.46165 22.2427 5.30089 21.0819 5.30089 19.65C5.30089 18.2182 6.46165 17.0574 7.89353 17.0574C9.3254 17.0574 10.4862 18.2182 10.4862 19.65C10.4844 21.0812 9.32465 22.2409 7.89353 22.2427ZM7.89353 17.7403C6.83879 17.7403 5.98372 18.5953 5.98372 19.65C5.98372 20.7048 6.83879 21.5598 7.89353 21.5598C8.94826 21.5598 9.80242 20.7048 9.80242 19.65C9.80152 18.5957 8.94788 17.7412 7.89353 17.7403Z" fill="black"/>
<path d="M22.1263 22.2427C20.6944 22.2427 19.5337 21.0819 19.5337 19.65C19.5337 18.2182 20.6944 17.0574 22.1263 17.0574C23.5582 17.0574 24.7189 18.2182 24.7189 19.65C24.7171 21.0812 23.5574 22.2409 22.1263 22.2427ZM22.1263 17.7403C21.0716 17.7403 20.2165 18.5953 20.2165 19.65C20.2165 20.7048 21.0716 21.5598 22.1263 21.5598C23.181 21.5598 24.0352 20.7048 24.0352 19.65C24.0343 18.5957 23.1807 17.7412 22.1263 17.7403Z" fill="black"/>
<path d="M25.3147 15.9127H21.4179C20.8695 15.9122 20.4246 15.4685 20.4228 14.92V11.7234C20.4228 11.5346 20.5758 11.3815 20.7646 11.3815C20.9534 11.3815 21.1065 11.5346 21.1065 11.7234V14.92C21.1069 15.0918 21.2461 15.231 21.4179 15.2315H25.3147C25.5035 15.2315 25.6565 15.3845 25.6565 15.5733C25.6565 15.7621 25.5035 15.9152 25.3147 15.9152V15.9127Z" fill="black"/>
<path d="M18.3462 16.4287H4.34185C4.15305 16.4287 4 16.2757 4 16.0869C4 15.8981 4.15305 15.745 4.34185 15.745H18.3462C18.535 15.745 18.6881 15.8981 18.6881 16.0869C18.6881 16.2757 18.535 16.4287 18.3462 16.4287Z" fill="black"/>
<path d="M7.89348 10.236H4.34185C4.15305 10.236 4 10.0829 4 9.89414C4 9.70534 4.15305 9.55229 4.34185 9.55229H7.89348C8.08228 9.55229 8.23533 9.70534 8.23533 9.89414C8.23533 10.0829 8.08228 10.236 7.89348 10.236Z" fill="black"/>
</svg>
