<svg width="30" height="30" viewBox="0 0 30 30" fill="none" xmlns="http://www.w3.org/2000/svg">
<path d="M17.4682 18.8115H11.0271C10.8727 18.8115 10.7474 18.6863 10.7474 18.5319C10.7474 18.3774 10.8727 18.2522 11.0271 18.2522H17.4682C17.5755 18.2522 17.6625 18.1652 17.6625 18.0578V9.7537C17.6625 9.64639 17.5755 9.55939 17.4682 9.55939H6.7537C6.64639 9.55939 6.55939 9.64639 6.55939 9.7537V18.0578C6.55939 18.1652 6.64639 18.2522 6.7537 18.2522H7.34335C7.49782 18.2522 7.62304 18.3774 7.62304 18.5319C7.62304 18.6863 7.49782 18.8115 7.34335 18.8115H6.7537C6.3376 18.8112 6.00037 18.4739 6 18.0578V9.7537C6.00037 9.3376 6.3376 9.00037 6.7537 9H17.4682C17.8843 9.00037 18.2215 9.3376 18.2219 9.7537V18.0578C18.2215 18.4739 17.8843 18.8112 17.4682 18.8115Z" fill="black"/>
<path d="M23.2866 18.8115H22.6721C22.5176 18.8115 22.3924 18.6863 22.3924 18.5318C22.3924 18.3774 22.5176 18.2521 22.6721 18.2521H23.2866C23.3706 18.2521 23.4386 18.1841 23.4386 18.1002V15.3624C23.4387 15.3246 23.4245 15.2881 23.3989 15.2602L20.5751 12.1856C20.5463 12.1544 20.5059 12.1366 20.4635 12.1365H18.3738C18.2899 12.1365 18.2219 12.2045 18.2219 12.2884V18.1002C18.2219 18.1841 18.2899 18.2521 18.3738 18.2521H18.9883C19.1428 18.2521 19.268 18.3774 19.268 18.5318C19.268 18.6863 19.1428 18.8115 18.9883 18.8115H18.3738C17.9811 18.8112 17.6628 18.4929 17.6625 18.1002V12.2884C17.6628 11.8957 17.9811 11.5775 18.3738 11.5771H20.4655C20.6646 11.5774 20.8545 11.661 20.9892 11.8077L23.8131 14.8817C23.9336 15.0127 24.0004 15.1844 24 15.3624V18.1002C23.9998 18.2892 23.9245 18.4703 23.7907 18.6037C23.6569 18.7371 23.4756 18.8119 23.2866 18.8115Z" fill="black"/>
<path d="M9.18561 20.6531C8.01408 20.6531 7.06436 19.7034 7.06436 18.5319C7.06436 17.3603 8.01408 16.4106 9.18561 16.4106C10.3571 16.4106 11.3069 17.3603 11.3069 18.5319C11.3054 19.7028 10.3565 20.6516 9.18561 20.6531ZM9.18561 16.9693C8.32265 16.9693 7.62304 17.6689 7.62304 18.5319C7.62304 19.3948 8.32265 20.0944 9.18561 20.0944C10.0486 20.0944 10.7474 19.3948 10.7474 18.5319C10.7467 17.6692 10.0483 16.9701 9.18561 16.9693Z" fill="black"/>
<path d="M20.8306 20.6531C19.6591 20.6531 18.7094 19.7034 18.7094 18.5319C18.7094 17.3603 19.6591 16.4106 20.8306 16.4106C22.0021 16.4106 22.9519 17.3603 22.9519 18.5319C22.9504 19.7028 22.0015 20.6516 20.8306 20.6531ZM20.8306 16.9693C19.9676 16.9693 19.268 17.6689 19.268 18.5318C19.268 19.3948 19.9676 20.0944 20.8306 20.0944C21.6936 20.0944 22.3924 19.3948 22.3924 18.5318C22.3917 17.6692 21.6933 16.9701 20.8306 16.9693Z" fill="black"/>
<path d="M23.4393 15.474H20.251C19.8023 15.4736 19.4383 15.1106 19.4368 14.6618V12.0464C19.4368 11.8919 19.562 11.7667 19.7165 11.7667C19.871 11.7667 19.9962 11.8919 19.9962 12.0464V14.6618C19.9966 14.8024 20.1104 14.9163 20.251 14.9166H23.4393C23.5938 14.9166 23.719 15.0419 23.719 15.1963C23.719 15.3508 23.5938 15.476 23.4393 15.476V15.474Z" fill="black"/>
<path d="M17.7378 15.8962H6.2797C6.12522 15.8962 6 15.771 6 15.6166C6 15.4621 6.12522 15.3369 6.2797 15.3369H17.7378C17.8923 15.3369 18.0175 15.4621 18.0175 15.6166C18.0175 15.771 17.8923 15.8962 17.7378 15.8962Z" fill="black"/>
<path d="M9.18558 10.8294H6.2797C6.12522 10.8294 6 10.7042 6 10.5497C6 10.3953 6.12522 10.2701 6.2797 10.2701H9.18558C9.34005 10.2701 9.46527 10.3953 9.46527 10.5497C9.46527 10.7042 9.34005 10.8294 9.18558 10.8294Z" fill="black"/>
</svg>
