<svg width="30" height="30" viewBox="0 0 30 30" fill="none" xmlns="http://www.w3.org/2000/svg">
<path d="M23.2493 8.75066H21.9994V23.1251C21.9994 23.3855 21.9506 23.6296 21.8529 23.8575C21.7553 24.0853 21.6218 24.2839 21.4525 24.4531C21.2833 24.6224 21.0847 24.7559 20.8569 24.8535C20.629 24.9512 20.3849 25 20.1245 25H10.1249C9.86447 25 9.62034 24.9512 9.39248 24.8535C9.16463 24.7559 8.96607 24.6224 8.7968 24.4531C8.62754 24.2839 8.49408 24.0853 8.39643 23.8575C8.29878 23.6296 8.24995 23.3855 8.24995 23.1251V8.75066H7V7.50071H11.9998V6.25076C11.9998 6.07499 12.0323 5.91224 12.0974 5.7625C12.1626 5.61277 12.2504 5.48257 12.3611 5.37189C12.4718 5.26122 12.6052 5.17008 12.7615 5.09847C12.9177 5.02685 13.0805 4.9943 13.2497 5.00081H16.9996C17.1754 5.00081 17.3381 5.03336 17.4879 5.09847C17.6376 5.16357 17.7678 5.25145 17.8785 5.36213C17.9891 5.4728 18.0803 5.60626 18.1519 5.7625C18.2235 5.91875 18.2561 6.0815 18.2495 6.25076V7.50071H23.2493V8.75066ZM13.2497 7.50071H16.9996V6.25076H13.2497V7.50071ZM20.7494 8.75066H9.4999V23.1251C9.4999 23.2943 9.56174 23.4408 9.68544 23.5645C9.80913 23.6882 9.95561 23.7501 10.1249 23.7501H20.1245C20.2937 23.7501 20.4402 23.6882 20.5639 23.5645C20.6876 23.4408 20.7494 23.2943 20.7494 23.1251V8.75066ZM13.2497 21.2502H11.9998V11.2506H13.2497V21.2502ZM15.7496 21.2502H14.4997V11.2506H15.7496V21.2502ZM18.2495 21.2502H16.9996V11.2506H18.2495V21.2502Z" fill="black"/>
</svg>
