<svg width="30" height="30" viewBox="0 0 30 30" fill="none" xmlns="http://www.w3.org/2000/svg">
<path d="M22.0588 8.52941H21.4706V7.94118C21.4706 7.16113 21.1607 6.41303 20.6091 5.86145C20.0576 5.30987 19.3095 5 18.5294 5H7.94118C7.16113 5 6.41303 5.30987 5.86145 5.86145C5.30987 6.41303 5 7.16113 5 7.94118V18.5294C5 19.3095 5.30987 20.0576 5.86145 20.6091C6.41303 21.1607 7.16113 21.4706 7.94118 21.4706H8.52941V22.0588C8.52941 22.4451 8.60549 22.8275 8.7533 23.1844C8.9011 23.5412 9.11775 23.8654 9.39086 24.1386C9.66398 24.4117 9.98821 24.6283 10.345 24.7761C10.7019 24.9239 11.0843 25 11.4706 25H22.0588C22.4451 25 22.8275 24.9239 23.1844 24.7761C23.5412 24.6283 23.8654 24.4117 24.1386 24.1386C24.4117 23.8654 24.6283 23.5412 24.7761 23.1844C24.9239 22.8275 25 22.4451 25 22.0588V11.4706C25 11.0843 24.9239 10.7019 24.7761 10.345C24.6283 9.98821 24.4117 9.66398 24.1386 9.39086C23.8654 9.11775 23.5412 8.9011 23.1844 8.7533C22.8275 8.60549 22.4451 8.52941 22.0588 8.52941V8.52941ZM7.94118 20.2941C7.47315 20.2941 7.02429 20.1082 6.69334 19.7772C6.36239 19.4463 6.17647 18.9974 6.17647 18.5294V7.94118C6.17647 7.47315 6.36239 7.02429 6.69334 6.69334C7.02429 6.36239 7.47315 6.17647 7.94118 6.17647H18.5294C18.9974 6.17647 19.4463 6.36239 19.7772 6.69334C20.1082 7.02429 20.2941 7.47315 20.2941 7.94118V18.5294C20.2941 18.9974 20.1082 19.4463 19.7772 19.7772C19.4463 20.1082 18.9974 20.2941 18.5294 20.2941H7.94118ZM23.8235 22.0588C23.8235 22.5269 23.6376 22.9757 23.3067 23.3067C22.9757 23.6376 22.5269 23.8235 22.0588 23.8235H11.4706C11.0026 23.8235 10.5537 23.6376 10.2228 23.3067C9.89181 22.9757 9.70588 22.5269 9.70588 22.0588V21.4706H18.5294C19.3095 21.4706 20.0576 21.1607 20.6091 20.6091C21.1607 20.0576 21.4706 19.3095 21.4706 18.5294V9.70588H22.0588C22.5269 9.70588 22.9757 9.89181 23.3067 10.2228C23.6376 10.5537 23.8235 11.0026 23.8235 11.4706V22.0588Z" fill="black"/>
</svg>
