<svg width="30" height="30" viewBox="0 0 30 30" fill="none" xmlns="http://www.w3.org/2000/svg">
<path d="M17.5104 9.208H17.6104V9.108V8.09091V7.99091H17.5104H8.516V7.9909L8.5148 7.99092C7.82302 7.99917 7.16195 8.2776 6.67319 8.7666C6.18444 9.25561 5.90688 9.91632 5.9 10.6072H5.9V10.6082V22.4573C5.89995 23.1528 6.17445 23.8202 6.66395 24.3149C7.15344 24.8096 7.81845 25.0917 8.5148 25.1H8.516L20.388 25.1L20.389 25.1C21.0863 25.0931 21.7527 24.8116 22.2433 24.3168C22.7339 23.8219 23.0092 23.1537 23.0091 22.4573V13.573V13.473H22.9091H21.8905H21.7904L21.7905 13.5731L21.8007 22.4827C21.8007 22.4828 21.8007 22.4828 21.8007 22.4829C21.8007 22.8609 21.6503 23.2234 21.3825 23.4908C21.1147 23.7581 20.7515 23.9084 20.3728 23.9084H8.516C8.13724 23.9084 7.77402 23.7581 7.50624 23.4908C7.23847 23.2234 7.08806 22.8608 7.08806 22.4827V10.6336C7.08806 10.2556 7.23847 9.89298 7.50624 9.62561C7.77402 9.35824 8.13724 9.208 8.516 9.208H17.5104Z" fill="black" stroke="black" stroke-width="0.2"/>
<path d="M24.2527 4.92754L24.1838 4.85504L24.1149 4.92754L14.6842 14.8546L14.6153 14.9271L14.6842 14.9996L15.3988 15.7518L15.4677 15.8243L15.5365 15.7518L24.9673 5.82476L25.0362 5.75226L24.9673 5.67976L24.2527 4.92754Z" fill="black" stroke="black" stroke-width="0.2"/>
</svg>
