<svg width="30" height="30" viewBox="0 0 30 30" fill="none" xmlns="http://www.w3.org/2000/svg">
<path d="M12.5036 10.0403H9.27686C9.10549 10.0403 8.96656 9.90055 8.96656 9.7282C8.96656 9.55586 9.10549 9.41614 9.27686 9.41614H12.5036C12.675 9.41614 12.8139 9.55586 12.8139 9.7282C12.8139 9.90055 12.675 10.0403 12.5036 10.0403Z" fill="black"/>
<path d="M20.1282 18.9453H12.9825C12.8111 18.9453 12.6722 18.8056 12.6722 18.6333C12.6722 18.4609 12.8111 18.3212 12.9825 18.3212H20.1282C20.2804 18.3099 20.4075 18.2 20.4415 18.0504L22.0653 8.78751C22.0762 8.73474 22.0787 8.68055 22.0727 8.62698C21.9063 8.61706 21.7746 8.48168 21.7684 8.31417C21.7647 8.23227 21.7945 8.15244 21.8509 8.09321C21.9073 8.03398 21.9852 8.00052 22.0668 8.0006C22.251 7.99233 22.4289 8.06946 22.5494 8.2099C22.6433 8.32242 22.7425 8.53321 22.6784 8.89554L21.0523 18.1584C20.9668 18.6068 20.582 18.9344 20.1282 18.9453Z" fill="black"/>
<path d="M8.8958 18.9453H8.24165C8.01923 18.9482 7.80698 18.8518 7.66209 18.682C7.51877 18.5055 7.46058 18.2742 7.50321 18.0504L9.12703 8.78751C9.21256 8.33916 9.59739 8.01149 10.0512 8.0006H22.1033C22.2747 8.0006 22.4136 8.14031 22.4136 8.31266C22.4136 8.48501 22.2747 8.62472 22.1033 8.62472H10.0512C9.89898 8.63603 9.7719 8.74588 9.73792 8.89553L8.1141 18.1584C8.10384 18.2006 8.11228 18.2452 8.13723 18.2807C8.16446 18.3089 8.20262 18.3237 8.24165 18.3212H8.8958C9.06717 18.3212 9.2061 18.4609 9.2061 18.6333C9.2061 18.8056 9.06717 18.9453 8.8958 18.9453Z" fill="black"/>
<path d="M26.5831 18.9453H25.9014C25.73 18.9453 25.5911 18.8056 25.5911 18.6333C25.5911 18.4609 25.73 18.3212 25.9014 18.3212H26.5831C26.7088 18.3113 26.8133 18.2199 26.8404 18.0961L27.376 15.0408C27.3832 15.0117 27.3786 14.981 27.3633 14.9553L24.8355 11.5256C24.8161 11.5053 24.7888 11.4946 24.7609 11.4963H22.4382C22.3125 11.5062 22.208 11.5976 22.1808 11.7214L21.0441 18.2064C21.0361 18.2367 21.0415 18.269 21.059 18.2949C21.0788 18.3144 21.106 18.3242 21.1336 18.3219H21.8153C21.9867 18.3219 22.1256 18.4617 22.1256 18.634C22.1256 18.8064 21.9867 18.9461 21.8153 18.9461H21.1336C20.9228 18.9487 20.7218 18.8572 20.5846 18.6963C20.4487 18.5285 20.394 18.3085 20.4354 18.0961L21.5722 11.6118C21.6528 11.1908 22.0142 10.8832 22.4404 10.8729H24.7586C24.9839 10.8692 25.1974 10.9741 25.333 11.155L27.8616 14.5832C27.9795 14.7461 28.0249 14.9509 27.9869 15.1488L27.4513 18.2064C27.3708 18.6274 27.0093 18.9351 26.5831 18.9453Z" fill="black"/>
<path d="M10.5786 21C9.94537 21 9.3852 20.7509 9.01226 20.2979C8.63931 19.8448 8.47819 19.2259 8.59157 18.5785C8.81534 17.3033 10.0304 16.2658 11.3007 16.2658C11.9339 16.2658 12.4941 16.5148 12.867 16.9679C13.24 17.421 13.4011 18.0399 13.2877 18.6873C13.064 19.9625 11.8489 21 10.5786 21ZM11.2992 16.8899C10.3161 16.8899 9.37476 17.6963 9.20097 18.6903C9.11966 19.1531 9.22111 19.5822 9.4859 19.8995C9.76006 20.2158 10.1609 20.3918 10.5779 20.3789C11.561 20.3789 12.5023 19.5725 12.6761 18.5785C12.7574 18.1157 12.656 17.6866 12.3912 17.3693C12.117 17.053 11.7162 16.877 11.2992 16.8899Z" fill="black"/>
<path d="M23.4975 21C22.8642 21 22.304 20.7509 21.9311 20.2979C21.5581 19.8448 21.397 19.2259 21.5104 18.5785C21.7342 17.3033 22.9492 16.2658 24.2195 16.2658C24.8528 16.2658 25.4129 16.5148 25.7859 16.9679C26.1588 17.421 26.3199 18.0399 26.2066 18.6873C25.9828 19.9625 24.7677 21 23.4975 21ZM24.218 16.8899C23.2349 16.8899 22.2936 17.6963 22.1198 18.6903C22.0385 19.1531 22.1399 19.5822 22.4047 19.8995C22.6789 20.2158 23.0797 20.3918 23.4967 20.3789C24.4798 20.3789 25.4211 19.5725 25.5949 18.5785C25.6762 18.1157 25.5748 17.6866 25.31 17.3693C25.0358 17.053 24.635 16.877 24.218 16.8899Z" fill="black"/>
<path d="M27.4022 15.2216H23.8682C23.629 15.2247 23.4006 15.1212 23.2446 14.9388C23.0903 14.7489 23.028 14.4998 23.0745 14.2591L23.5855 11.3433C23.619 11.1774 23.7779 11.0686 23.9437 11.0981C24.1094 11.1276 24.2215 11.2847 24.1964 11.4521L23.6854 14.3679C23.6712 14.427 23.6837 14.4894 23.7197 14.5382C23.7579 14.5799 23.8127 14.602 23.8689 14.5982H27.4037C27.5751 14.5982 27.714 14.7379 27.714 14.9103C27.714 15.0826 27.5751 15.2223 27.4037 15.2223L27.4022 15.2216Z" fill="black"/>
<path d="M20.9971 15.6927H8.28553C8.11416 15.6927 7.97524 15.5529 7.97524 15.3806C7.97524 15.2082 8.11416 15.0685 8.28553 15.0685H20.9971C21.1685 15.0685 21.3074 15.2082 21.3074 15.3806C21.3074 15.5529 21.1685 15.6927 20.9971 15.6927Z" fill="black"/>
<path d="M9.74845 8.62472H7.22807C7.0567 8.62472 6.91778 8.48501 6.91778 8.31266C6.91778 8.14031 7.0567 8.0006 7.22807 8.0006H9.74845C9.91982 8.0006 10.0587 8.14031 10.0587 8.31266C10.0587 8.48501 9.91982 8.62472 9.74845 8.62472Z" fill="black"/>
<path d="M7.80829 18.4165H4.83068C4.65931 18.4165 4.52038 18.2768 4.52038 18.1044C4.52038 17.9321 4.65931 17.7923 4.83068 17.7923H7.80829C7.97966 17.7923 8.11859 17.9321 8.11859 18.1044C8.11859 18.2768 7.97966 18.4165 7.80829 18.4165Z" fill="black"/>
<path d="M3.38662 18.4165H2.31029C2.13892 18.4165 2 18.2768 2 18.1044C2 17.9321 2.13892 17.7923 2.31029 17.7923H3.38588C3.55725 17.7923 3.69617 17.9321 3.69617 18.1044C3.69617 18.2768 3.55799 18.4165 3.38662 18.4165Z" fill="black"/>
<path d="M8.28578 14.0146H6.82233C6.65096 14.0146 6.51203 13.8749 6.51203 13.7025C6.51203 13.5302 6.65096 13.3905 6.82233 13.3905H8.28652C8.45789 13.3905 8.59681 13.5302 8.59681 13.7025C8.59681 13.8749 8.45715 14.0146 8.28578 14.0146Z" fill="black"/>
<path d="M5.05512 14.0146H3.83558C3.66421 14.0146 3.52528 13.8749 3.52528 13.7025C3.52528 13.5302 3.66421 13.3905 3.83558 13.3905H5.05512C5.22649 13.3905 5.36541 13.5302 5.36541 13.7025C5.36541 13.8749 5.22649 14.0146 5.05512 14.0146Z" fill="black"/>
<path d="M8.86351 11.2495H6.97192C6.80055 11.2495 6.66163 11.1098 6.66163 10.9375C6.66163 10.7651 6.80055 10.6254 6.97192 10.6254H8.86351C9.03488 10.6254 9.1738 10.7651 9.1738 10.9375C9.1738 11.1098 9.03488 11.2495 8.86351 11.2495Z" fill="black"/>
</svg>
