<svg width="30" height="30" viewBox="0 0 30 30" fill="none" xmlns="http://www.w3.org/2000/svg">
<path d="M10.6956 10.8833H7.7171C7.55891 10.8833 7.43067 10.7544 7.43067 10.5953C7.43067 10.4362 7.55891 10.3072 7.7171 10.3072H10.6956C10.8538 10.3072 10.9821 10.4362 10.9821 10.5953C10.9821 10.7544 10.8538 10.8833 10.6956 10.8833Z" fill="black"/>
<path d="M17.7337 19.1034H11.1377C10.9795 19.1034 10.8513 18.9744 10.8513 18.8153C10.8513 18.6562 10.9795 18.5273 11.1377 18.5273H17.7337C17.8742 18.5168 17.9915 18.4154 18.0229 18.2773L19.5218 9.72694C19.5319 9.67822 19.5342 9.6282 19.5287 9.57875C19.3751 9.56959 19.2535 9.44463 19.2478 9.29C19.2444 9.21441 19.2719 9.14071 19.3239 9.08604C19.3759 9.03137 19.4479 9.00048 19.5232 9.00056C19.6932 8.99292 19.8574 9.06412 19.9686 9.19375C20.0554 9.29762 20.147 9.4922 20.0878 9.82665L18.5868 18.377C18.5078 18.7909 18.1526 19.0933 17.7337 19.1034Z" fill="black"/>
<path d="M7.36536 19.1034H6.76153C6.55621 19.106 6.36029 19.017 6.22655 18.8603C6.09425 18.6974 6.04054 18.4839 6.07989 18.2773L7.5788 9.72693C7.65775 9.31307 8.01298 9.0106 8.43188 9.00055H19.5569C19.7151 9.00055 19.8434 9.12952 19.8434 9.28861C19.8434 9.4477 19.7151 9.57667 19.5569 9.57667H8.43188C8.29136 9.5871 8.17406 9.6885 8.1427 9.82664L6.64379 18.377C6.63432 18.4159 6.6421 18.4571 6.66513 18.4899C6.69027 18.5159 6.7255 18.5296 6.76153 18.5273H7.36536C7.52355 18.5273 7.65178 18.6562 7.65178 18.8153C7.65178 18.9744 7.52355 19.1034 7.36536 19.1034Z" fill="black"/>
<path d="M23.6921 19.1034H23.0628C22.9046 19.1034 22.7764 18.9744 22.7764 18.8153C22.7764 18.6562 22.9046 18.5273 23.0628 18.5273H23.6921C23.8081 18.5181 23.9045 18.4338 23.9296 18.3195L24.424 15.4992C24.4306 15.4723 24.4264 15.444 24.4123 15.4202L22.0789 12.2544C22.061 12.2357 22.0358 12.2258 22.01 12.2274H19.866C19.75 12.2365 19.6536 12.3208 19.6285 12.4351L18.5792 18.4213C18.5717 18.4493 18.5768 18.4791 18.5929 18.503C18.6112 18.521 18.6363 18.5301 18.6618 18.5279H19.2911C19.4493 18.5279 19.5775 18.6569 19.5775 18.816C19.5775 18.9751 19.4493 19.1041 19.2911 19.1041H18.6618C18.4672 19.1065 18.2817 19.022 18.155 18.8735C18.0296 18.7186 17.9791 18.5156 18.0173 18.3195L19.0666 12.334C19.141 11.9454 19.4747 11.6614 19.8681 11.6519H22.008C22.2159 11.6485 22.413 11.7453 22.5381 11.9123L24.8722 15.0768C24.9811 15.2272 25.023 15.4163 24.9879 15.5989L24.4935 18.4213C24.4192 18.8099 24.0855 19.0939 23.6921 19.1034Z" fill="black"/>
<path d="M8.91874 21C8.33419 21 7.81711 20.7701 7.47285 20.3519C7.12859 19.9336 6.97987 19.3624 7.08453 18.7648C7.29108 17.5876 8.41268 16.63 9.58523 16.63C10.1698 16.63 10.6869 16.8599 11.0311 17.2781C11.3754 17.6963 11.5241 18.2676 11.4194 18.8652C11.2129 20.0423 10.0913 21 8.91874 21ZM9.58385 17.2061C8.67638 17.2061 7.80747 17.9505 7.64705 18.868C7.572 19.2952 7.66564 19.6913 7.91006 19.9842C8.16313 20.2762 8.5331 20.4386 8.91805 20.4267C9.82552 20.4267 10.6944 19.6823 10.8549 18.7648C10.9299 18.3375 10.8363 17.9415 10.5918 17.6486C10.3388 17.3566 9.96881 17.1942 9.58385 17.2061Z" fill="black"/>
<path d="M20.8438 21C20.2593 21 19.7422 20.7701 19.3979 20.3519C19.0537 19.9336 18.9049 19.3624 19.0096 18.7648C19.2162 17.5876 20.3378 16.63 21.5103 16.63C22.0949 16.63 22.6119 16.8599 22.9562 17.2781C23.3005 17.6963 23.4492 18.2676 23.3445 18.8652C23.138 20.0423 22.0164 21 20.8438 21ZM21.5089 17.2061C20.6015 17.2061 19.7326 17.9505 19.5721 18.868C19.4971 19.2952 19.5907 19.6913 19.8351 19.9842C20.0882 20.2762 20.4582 20.4386 20.8431 20.4267C21.7506 20.4267 22.6195 19.6823 22.7799 18.7648C22.855 18.3375 22.7614 17.9415 22.5169 17.6486C22.2639 17.3566 21.8939 17.1942 21.5089 17.2061Z" fill="black"/>
<path d="M24.4482 15.6661H21.186C20.9652 15.669 20.7544 15.5734 20.6104 15.405C20.468 15.2297 20.4105 14.9998 20.4534 14.7777L20.9251 12.0861C20.956 11.933 21.1027 11.8326 21.2557 11.8598C21.4087 11.887 21.5122 12.032 21.489 12.1865L21.0173 14.8781C21.0042 14.9326 21.0158 14.9902 21.049 15.0352C21.0842 15.0738 21.1348 15.0941 21.1867 15.0906H24.4496C24.6078 15.0906 24.736 15.2196 24.736 15.3787C24.736 15.5378 24.6078 15.6668 24.4496 15.6668L24.4482 15.6661Z" fill="black"/>
<path d="M18.5358 16.1009H6.80203C6.64384 16.1009 6.51561 15.9719 6.51561 15.8129C6.51561 15.6538 6.64384 15.5248 6.80203 15.5248H18.5358C18.694 15.5248 18.8222 15.6538 18.8222 15.8129C18.8222 15.9719 18.694 16.1009 18.5358 16.1009Z" fill="black"/>
<path d="M8.15242 9.57667H5.82591C5.66772 9.57667 5.53949 9.4477 5.53949 9.28861C5.53949 9.12952 5.66772 9.00055 5.82591 9.00055H8.15242C8.31061 9.00055 8.43885 9.12952 8.43885 9.28861C8.43885 9.4477 8.31061 9.57667 8.15242 9.57667Z" fill="black"/>
<path d="M6.3615 18.6152H3.61293C3.45474 18.6152 3.32651 18.4862 3.32651 18.3271C3.32651 18.1681 3.45474 18.0391 3.61293 18.0391H6.3615C6.51969 18.0391 6.64793 18.1681 6.64793 18.3271C6.64793 18.4862 6.51969 18.6152 6.3615 18.6152Z" fill="black"/>
<path d="M2.27996 18.6152H1.28642C1.12824 18.6152 1 18.4862 1 18.3271C1 18.1681 1.12824 18.0391 1.28642 18.0391H2.27927C2.43746 18.0391 2.56569 18.1681 2.56569 18.3271C2.56569 18.4862 2.43815 18.6152 2.27996 18.6152Z" fill="black"/>
<path d="M6.80225 14.5519H5.45138C5.29319 14.5519 5.16495 14.423 5.16495 14.2639C5.16495 14.1048 5.29319 13.9758 5.45138 13.9758H6.80294C6.96113 13.9758 7.08937 14.1048 7.08937 14.2639C7.08937 14.423 6.96044 14.5519 6.80225 14.5519Z" fill="black"/>
<path d="M3.82011 14.5519H2.69438C2.53619 14.5519 2.40795 14.423 2.40795 14.2639C2.40795 14.1048 2.53619 13.9758 2.69438 13.9758H3.82011C3.9783 13.9758 4.10653 14.1048 4.10653 14.2639C4.10653 14.423 3.9783 14.5519 3.82011 14.5519Z" fill="black"/>
<path d="M7.33555 11.9996H5.58946C5.43128 11.9996 5.30304 11.8706 5.30304 11.7115C5.30304 11.5524 5.43128 11.4234 5.58946 11.4234H7.33555C7.49374 11.4234 7.62197 11.5524 7.62197 11.7115C7.62197 11.8706 7.49374 11.9996 7.33555 11.9996Z" fill="black"/>
</svg>
