<svg width="30" height="30" viewBox="0 0 30 30" fill="none" xmlns="http://www.w3.org/2000/svg">
<path fill-rule="evenodd" clip-rule="evenodd" d="M15 10.363L13.878 9.04545C13.0586 8.08317 11.7938 7.47368 10.5 7.47368C8.23389 7.47368 6.47368 9.23389 6.47368 11.5C6.47368 12.9059 7.09268 14.2967 8.48477 15.9999C9.89357 17.7234 11.9354 19.5815 14.5397 21.9481L14.5411 21.9494L14.9962 22.3606L15.4601 21.9383C18.0647 19.5764 20.1068 17.7205 21.5155 15.9982C22.9073 14.2966 23.5263 12.9059 23.5263 11.5C23.5263 9.23389 21.7661 7.47368 19.5 7.47368C18.2062 7.47368 16.9414 8.08317 16.122 9.04545L15 10.363ZM15 24.35L13.55 23.04L13.5105 23.0041C8.38264 18.3442 5 15.2703 5 11.5C5 8.42 7.42 6 10.5 6C11.732 6 12.9289 6.40609 13.9097 7.09757C14.3141 7.38268 14.6818 7.71631 15 8.09C15.3182 7.71631 15.6859 7.38268 16.0903 7.09757C17.0711 6.40609 18.268 6 19.5 6C22.58 6 25 8.42 25 11.5C25 15.2769 21.6056 18.3549 16.4627 23.0185L16.45 23.03L15 24.35Z" fill="black"/>
</svg>
