<svg width="30" height="30" viewBox="0 0 30 30" fill="none" xmlns="http://www.w3.org/2000/svg">
<path d="M22.1444 16.5712V5.73421C22.1444 5.32305 21.8118 5 21.3885 5C20.9653 5 20.6327 5.32305 20.6327 5.73421V16.5712C19.5141 16.8943 18.6979 17.8928 18.6979 19.0969C18.6979 20.2717 19.5141 21.2996 20.6327 21.5932V24.2658C20.6327 24.6769 20.9653 25 21.3885 25C21.8118 25 22.1444 24.6769 22.1444 24.2658V21.5932C23.2629 21.2702 24.0792 20.2717 24.0792 19.0969C24.0792 17.8928 23.2629 16.8943 22.1444 16.5712ZM21.3885 20.2129C20.7234 20.2129 20.2095 19.6843 20.2095 19.0675C20.2095 18.4508 20.7234 17.9222 21.3885 17.9222C22.0537 17.9222 22.5676 18.4508 22.5676 19.0675C22.5676 19.6843 22.0537 20.2129 21.3885 20.2129Z" fill="black"/>
<path d="M16.0978 7.76065V5.73421C16.0978 5.32305 15.7652 5 15.342 5C14.9187 5 14.5862 5.32305 14.5862 5.73421V7.76065C13.4676 8.0837 12.6513 9.08223 12.6513 10.2863C12.6513 11.4611 13.4676 12.489 14.5862 12.7827V24.2658C14.5862 24.6769 14.9187 25 15.342 25C15.7652 25 16.0978 24.6769 16.0978 24.2658V12.7827C17.2164 12.4596 18.0326 11.4611 18.0326 10.2863C18.0326 9.08223 17.2164 8.0837 16.0978 7.76065ZM15.342 11.4023C14.6769 11.4023 14.1629 10.8737 14.1629 10.257C14.1629 9.64024 14.6769 9.1116 15.342 9.1116C16.0071 9.1116 16.521 9.64024 16.521 10.257C16.521 10.8737 16.0071 11.4023 15.342 11.4023Z" fill="black"/>
<path d="M9.44649 13.047V5.73421C9.44649 5.32305 9.11393 5 8.69068 5C8.26743 5 7.93487 5.32305 7.93487 5.73421V13.047C6.81627 13.37 6 14.3686 6 15.5727C6 16.7474 6.81627 17.7753 7.93487 18.069V24.2658C7.93487 24.6769 8.26743 25 8.69068 25C9.11393 25 9.44649 24.6769 9.44649 24.2658V18.069C10.5651 17.746 11.3814 16.7474 11.3814 15.5727C11.3814 14.3686 10.5651 13.37 9.44649 13.047ZM8.69068 16.6887C8.02557 16.6887 7.51162 16.1601 7.51162 15.5433C7.51162 14.9266 8.02557 14.3979 8.69068 14.3979C9.35579 14.3979 9.86974 14.9266 9.86974 15.5433C9.86974 16.1601 9.35579 16.6887 8.69068 16.6887Z" fill="black"/>
</svg>
