<svg width="30" height="30" viewBox="0 0 30 30" fill="none" xmlns="http://www.w3.org/2000/svg">
<path fill-rule="evenodd" clip-rule="evenodd" d="M14.596 5.22477C14.4483 5.37231 14.3274 5.86231 14.3274 6.31386C14.3274 7.10184 14.2907 7.14073 13.4113 7.28111C10.5709 7.73445 7.92018 10.2575 7.33989 13.0598C7.07392 14.3434 7.07257 14.3452 6.25026 14.3452C5.79153 14.3452 5.3037 14.4936 5.14833 14.6805C4.7187 15.1976 5.26206 15.6864 6.26661 15.6864C7.07571 15.6864 7.1113 15.7195 7.25212 16.5992C7.71444 19.4859 10.461 22.1894 13.4878 22.7376C14.2824 22.8813 14.3274 22.9345 14.3274 23.7314C14.3274 24.738 14.8161 25.2814 15.3348 24.8516C15.5245 24.6944 15.6707 24.2071 15.6707 23.7314C15.6707 22.9352 15.7163 22.8811 16.5102 22.7335C19.0244 22.2666 21.4602 20.2323 22.3503 17.8568C22.6167 17.1457 22.8348 16.3664 22.8348 16.125C22.8348 15.7647 22.9895 15.6864 23.703 15.6864C24.7353 15.6864 25.2852 15.2043 24.8497 14.6805C24.6926 14.4916 24.2047 14.3452 23.7314 14.3452C22.9223 14.3452 22.8867 14.3121 22.7459 13.4325C22.2863 10.5634 19.4583 7.7396 16.5848 7.28067C15.7076 7.14073 15.6707 7.10161 15.6707 6.31386C15.6707 5.19035 15.1544 4.66726 14.596 5.22477ZM18.1078 9.09961C22.9118 11.7106 22.8592 18.5862 18.0169 20.9517C13.5908 23.1138 8.64622 20.2469 8.33055 15.3353C8.24033 13.9332 8.30458 13.5548 8.82667 12.414C10.1135 9.60213 12.295 8.25664 15.3498 8.39121C16.5794 8.44531 17.1942 8.60313 18.1078 9.09961ZM13.2058 11.9421C12.1343 12.6702 11.6057 13.4888 11.4897 14.5991C11.2618 16.7845 13.2277 18.7474 15.4163 18.5198C16.5335 18.4036 17.3453 17.8778 18.0973 16.7836C18.7721 15.8016 18.7049 13.8959 17.9585 12.8493C16.9481 11.4323 14.6122 10.9865 13.2058 11.9421Z" fill="black"/>
</svg>
