<svg width="30" height="30" viewBox="0 0 30 30" fill="none" xmlns="http://www.w3.org/2000/svg">
<path fill-rule="evenodd" clip-rule="evenodd" d="M13.7575 6.24716C14.3508 6.00141 15.0036 5.93711 15.6335 6.06239C16.2633 6.18768 16.8419 6.49692 17.296 6.95101C17.75 7.40511 18.0593 7.98366 18.1846 8.61351C18.3099 9.24336 18.2456 9.89621 17.9998 10.4895C17.7541 11.0828 17.3379 11.5899 16.8039 11.9467C16.5051 12.1464 16.177 12.2939 15.8333 12.3852L15.8333 13.0053L25 18.0053V24.3333H5V18.0182L12.2925 13.8195L13.1241 15.2639L6.66667 18.9818V22.6667H23.3333V18.9947L14.1667 13.9947L14.1667 10.8273H15C15.3126 10.8273 15.6181 10.7346 15.878 10.5609C16.1379 10.3873 16.3404 10.1405 16.46 9.85171C16.5796 9.56295 16.6109 9.24521 16.5499 8.93866C16.489 8.63211 16.3385 8.35053 16.1174 8.12953C15.8964 7.90852 15.6149 7.75801 15.3083 7.69703C15.0018 7.63606 14.684 7.66735 14.3953 7.78696C14.1065 7.90657 13.8597 8.10912 13.686 8.369C13.5124 8.62887 13.4197 8.93441 13.4197 9.24696H11.7531C11.7531 8.60477 11.9435 7.97701 12.3003 7.44305C12.657 6.90909 13.1641 6.49292 13.7575 6.24716Z" fill="black"/>
</svg>
