<svg width="30" height="30" viewBox="0 0 30 30" fill="none" xmlns="http://www.w3.org/2000/svg">
<path d="M23.6364 8H6.36364C5.61159 8 5 8.60188 5 9.34199V20.9726C5 21.7127 5.61159 22.3146 6.36364 22.3146H23.6364C24.3884 22.3146 25 21.7127 25 20.9726V9.34199C25 8.60188 24.3884 8 23.6364 8ZM6.36364 21.4199C6.11318 21.4199 5.90909 21.2195 5.90909 20.9726V19.0453L11.3636 13.9605L19.3652 21.4199H6.36364ZM24.0909 20.9726C24.0909 21.2195 23.8868 21.4199 23.6364 21.4199H20.6864L18.4766 19.3597L20.9091 17.092L24.0909 20.0587V20.9726ZM24.0909 18.8263L21.2216 16.151C21.0466 15.9878 20.7716 15.9878 20.5966 16.151L17.8161 18.7438L11.6761 13.0193C11.5011 12.856 11.2261 12.856 11.0511 13.0193L5.90909 17.8129V9.34199C5.90909 9.09506 6.11318 8.89466 6.36364 8.89466H23.6364C23.8868 8.89466 24.0909 9.09506 24.0909 9.34199V18.8263ZM18.1818 10.2367C16.9286 10.2367 15.9091 11.24 15.9091 12.4733C15.9091 13.7066 16.9286 14.71 18.1818 14.71C19.435 14.71 20.4545 13.7066 20.4545 12.4733C20.4545 11.24 19.435 10.2367 18.1818 10.2367ZM18.1818 13.8153C17.4298 13.8153 16.8182 13.2134 16.8182 12.4733C16.8182 11.7332 17.4298 11.1313 18.1818 11.1313C18.9339 11.1313 19.5455 11.7332 19.5455 12.4733C19.5455 13.2134 18.9339 13.8153 18.1818 13.8153Z" fill="black"/>
</svg>
