<svg width="30" height="30" viewBox="0 0 30 30" fill="none" xmlns="http://www.w3.org/2000/svg">
<path d="M15 25C14.0764 25 13.191 24.8819 12.3438 24.6458C11.4965 24.4097 10.6979 24.0764 9.94792 23.6458C9.19792 23.2153 8.52431 22.6944 7.92708 22.0833C7.32986 21.4722 6.80903 20.7951 6.36458 20.0521C5.92014 19.309 5.58333 18.5139 5.35417 17.6667C5.125 16.8194 5.00694 15.9306 5 15C5 14.0764 5.11806 13.191 5.35417 12.3438C5.59028 11.4965 5.92361 10.6979 6.35417 9.94792C6.78472 9.19792 7.30556 8.52431 7.91667 7.92708C8.52778 7.32986 9.20486 6.80903 9.94792 6.36458C10.691 5.92014 11.4861 5.58333 12.3333 5.35417C13.1806 5.125 14.0694 5.00694 15 5C15.9236 5 16.809 5.11806 17.6563 5.35417C18.5035 5.59028 19.3021 5.92361 20.0521 6.35417C20.8021 6.78472 21.4757 7.30556 22.0729 7.91667C22.6701 8.52778 23.191 9.20486 23.6354 9.94792C24.0799 10.691 24.4167 11.4861 24.6458 12.3333C24.875 13.1806 24.9931 14.0694 25 15C25 15.9236 24.8819 16.809 24.6458 17.6563C24.4097 18.5035 24.0764 19.3021 23.6458 20.0521C23.2153 20.8021 22.6944 21.4757 22.0833 22.0729C21.4722 22.6701 20.7951 23.191 20.0521 23.6354C19.309 24.0799 18.5139 24.4167 17.6667 24.6458C16.8194 24.875 15.9306 24.9931 15 25ZM15 6.33333C14.2014 6.33333 13.434 6.4375 12.6979 6.64583C11.9618 6.85417 11.2743 7.14583 10.6354 7.52083C9.99653 7.89583 9.40972 8.34722 8.875 8.875C8.34028 9.40278 7.88889 9.98611 7.52083 10.625C7.15278 11.2639 6.86111 11.9549 6.64583 12.6979C6.43056 13.441 6.32639 14.2083 6.33333 15C6.33333 15.7917 6.4375 16.5556 6.64583 17.2917C6.85417 18.0278 7.14583 18.7188 7.52083 19.3646C7.89583 20.0104 8.34722 20.5972 8.875 21.125C9.40278 21.6528 9.98611 22.1042 10.625 22.4792C11.2639 22.8542 11.9549 23.1458 12.6979 23.3542C13.441 23.5625 14.2083 23.6667 15 23.6667C15.7917 23.6667 16.5556 23.5625 17.2917 23.3542C18.0278 23.1458 18.7188 22.8542 19.3646 22.4792C20.0104 22.1042 20.5972 21.6528 21.125 21.125C21.6528 20.5972 22.1042 20.0139 22.4792 19.375C22.8542 18.7361 23.1458 18.0451 23.3542 17.3021C23.5625 16.559 23.6667 15.7917 23.6667 15C23.6667 14.2083 23.5625 13.4444 23.3542 12.7083C23.1458 11.9722 22.8542 11.2813 22.4792 10.6354C22.1042 9.98958 21.6528 9.40278 21.125 8.875C20.5972 8.34722 20.0139 7.89583 19.375 7.52083C18.7361 7.14583 18.0451 6.85417 17.3021 6.64583C16.559 6.4375 15.7917 6.33333 15 6.33333ZM14.3333 13H15.6667V19.6667H14.3333V13ZM14.3333 10.3333H15.6667V11.6667H14.3333V10.3333Z" fill="black" stroke="black" stroke-width="0.1"/>
</svg>
