<svg width="30" height="30" viewBox="0 0 30 30" fill="none" xmlns="http://www.w3.org/2000/svg">
<path d="M14.6179 25C14.4941 25 14.3762 24.9473 14.2935 24.8551C13.9954 24.5245 7 16.7061 7 12.6184C7 9.89662 8.45206 7.38158 10.8092 6.02068C13.1664 4.65977 16.0705 4.65977 18.4276 6.02068C20.7848 7.38158 22.2368 9.89662 22.2368 12.6184C22.2368 16.705 15.2404 24.5245 14.9433 24.8551C14.8604 24.9475 14.742 25.0002 14.6179 25ZM14.6179 5.8739C10.8945 5.87853 7.87742 8.89608 7.87338 12.6195C7.87338 15.9041 13.227 22.3011 14.6179 23.902C16.0056 22.3001 21.3635 15.903 21.3635 12.6195C21.36 8.89527 18.3421 5.8769 14.6179 5.87285V5.8739Z" fill="black"/>
<path d="M14.6179 16.3744C12.4473 16.3744 10.6877 14.6148 10.6877 12.4442C10.6877 10.2736 12.4473 8.51397 14.6179 8.51397C16.7885 8.51397 18.5481 10.2736 18.5481 12.4442C18.5452 14.6136 16.7873 16.3715 14.6179 16.3744ZM14.6179 9.3863C12.9291 9.3863 11.56 10.7554 11.56 12.4442C11.56 14.133 12.9291 15.502 14.6179 15.502C16.3067 15.502 17.6758 14.133 17.6758 12.4442C17.6735 10.7565 16.3056 9.38908 14.6179 9.38735V9.3863Z" fill="black"/>
</svg>
