<svg width="30" height="30" viewBox="0 0 30 30" fill="none" xmlns="http://www.w3.org/2000/svg">
<path d="M24.75 25H6L9.75 13.75H14.75V11.1914C14.3854 11.1133 14.0501 10.9798 13.7441 10.791C13.4382 10.6022 13.1745 10.3743 12.9531 10.1074C12.7318 9.84049 12.5592 9.53451 12.4355 9.18945C12.3118 8.8444 12.25 8.48958 12.25 8.125C12.25 7.69531 12.3314 7.29167 12.4941 6.91406C12.6569 6.53646 12.8783 6.20768 13.1582 5.92773C13.4382 5.64779 13.7702 5.42318 14.1543 5.25391C14.5384 5.08464 14.9453 5 15.375 5C15.8047 5 16.2083 5.08138 16.5859 5.24414C16.9635 5.4069 17.2923 5.63151 17.5723 5.91797C17.8522 6.20443 18.0768 6.53646 18.2461 6.91406C18.4154 7.29167 18.5 7.69531 18.5 8.125C18.5 8.49609 18.4382 8.85091 18.3145 9.18945C18.1908 9.52799 18.0182 9.83073 17.7969 10.0977C17.5755 10.3646 17.3118 10.5957 17.0059 10.791C16.6999 10.9863 16.3646 11.1198 16 11.1914V13.75H21L24.75 25ZM13.5 8.125C13.5 8.38542 13.5488 8.62956 13.6465 8.85742C13.7441 9.08529 13.8776 9.28385 14.0469 9.45312C14.2161 9.6224 14.4147 9.75586 14.6426 9.85352C14.8704 9.95117 15.1146 10 15.375 10C15.6354 10 15.8796 9.95117 16.1074 9.85352C16.3353 9.75586 16.5339 9.6224 16.7031 9.45312C16.8724 9.28385 17.0059 9.08529 17.1035 8.85742C17.2012 8.62956 17.25 8.38542 17.25 8.125C17.25 7.86458 17.2012 7.62044 17.1035 7.39258C17.0059 7.16471 16.8724 6.96615 16.7031 6.79688C16.5339 6.6276 16.3353 6.49414 16.1074 6.39648C15.8796 6.29883 15.6354 6.25 15.375 6.25C15.1146 6.25 14.8704 6.29883 14.6426 6.39648C14.4147 6.49414 14.2161 6.6276 14.0469 6.79688C13.8776 6.96615 13.7441 7.16471 13.6465 7.39258C13.5488 7.62044 13.5 7.86458 13.5 8.125ZM7.73828 23.75H23.0117L20.1016 15H16V19.6875C16 19.7461 15.9772 19.7949 15.9316 19.834C15.8861 19.873 15.8275 19.9056 15.7559 19.9316C15.6842 19.9577 15.6159 19.974 15.5508 19.9805C15.4857 19.987 15.4271 19.9935 15.375 20C15.3294 20 15.2741 19.9967 15.209 19.9902C15.1439 19.9837 15.0755 19.9674 15.0039 19.9414C14.9323 19.9154 14.8737 19.8828 14.8281 19.8438C14.7826 19.8047 14.7565 19.7526 14.75 19.6875V15H10.6484L7.73828 23.75Z" fill="black"/>
</svg>
