<svg width="60" height="61" viewBox="0 0 60 61" fill="none" xmlns="http://www.w3.org/2000/svg">
<circle cx="30" cy="30.6836" r="30" fill="#F23568"/>
<path d="M49.9844 28.9367C50.0052 28.8575 50.0052 28.7743 49.9844 28.6951V28.633C49.9637 28.5789 49.9359 28.5279 49.9016 28.4812L49.8395 28.4191L49.7843 28.3569C49.7656 28.3369 49.7417 28.3225 49.7153 28.3155L49.6393 28.2741C49.582 28.2485 49.5217 28.23 49.4599 28.2189H49.4116L48.535 28.1499C46.5366 27.9917 44.6232 27.2742 43.0135 26.0793C40.0965 23.8835 36.5465 22.6921 32.8953 22.6836C32.5327 22.6833 32.1735 22.7545 31.8384 22.893C31.5032 23.0316 31.1987 23.2348 30.9421 23.4911C30.6835 23.7482 30.3336 23.8925 29.9689 23.8925C29.6043 23.8925 29.2544 23.7482 28.9958 23.4911C28.7392 23.2348 28.4346 23.0316 28.0995 22.893C27.7644 22.7545 27.4052 22.6833 27.0425 22.6836C23.418 22.6905 19.892 23.8642 16.9865 26.031C15.3768 27.2258 13.4634 27.9434 11.465 28.1016L10.5884 28.2051H10.5401C10.4783 28.2162 10.418 28.2347 10.3607 28.2603L10.2847 28.3017C10.2583 28.3087 10.2344 28.3231 10.2157 28.3431L10.1605 28.4053L10.0984 28.4674C10.0641 28.5141 10.0363 28.5651 10.0156 28.6192V28.6813C9.99481 28.7605 9.99481 28.8437 10.0156 28.9229V28.9712C10.0087 29.017 10.0087 29.0635 10.0156 29.1093C11.4169 32.8271 14.0309 35.9639 17.4351 38.0127L18.7189 38.7857C21.4445 40.4289 24.5639 41.3042 27.7465 41.3187H32.1914C35.3786 41.3173 38.5057 40.4514 41.2397 38.8133L42.5235 38.0403C45.9277 35.9915 48.5417 32.8547 49.943 29.1369V28.9505L49.9844 28.9367ZM17.8216 27.1353C20.4854 25.1474 23.7187 24.0704 27.0425 24.064C27.408 24.0655 27.758 24.212 28.0157 24.4712C28.2721 24.7279 28.5766 24.9315 28.9117 25.0704C29.2469 25.2094 29.6061 25.2809 29.9689 25.2809C30.3317 25.2809 30.691 25.2094 31.0261 25.0704C31.3613 24.9315 31.6658 24.7279 31.9222 24.4712C32.1799 24.212 32.5298 24.0655 32.8953 24.064C36.2213 24.0704 39.4568 25.1473 42.1232 27.1353C43.6514 28.2818 45.4304 29.0483 47.3134 29.3715C45.6274 30.4138 43.6844 30.9659 41.7022 30.9659H34.6898C33.7344 30.9676 32.7972 31.2275 31.9774 31.7182C31.3714 32.0841 30.6769 32.2775 29.9689 32.2775C29.261 32.2775 28.5665 32.0841 27.9605 31.7182C27.1407 31.2275 26.2035 30.9676 25.248 30.9659H18.2357C16.2557 30.9657 14.315 30.4136 12.6314 29.3715C14.5118 29.0468 16.2882 28.2804 17.8147 27.1353H17.8216ZM41.8126 36.8601L40.5288 37.6262C38.0107 39.1386 35.1287 39.9378 32.1914 39.9383H27.7465C24.8091 39.9378 21.9272 39.1386 19.409 37.6262L18.1253 36.8601C15.6681 35.3818 13.6463 33.2791 12.2656 30.7657C14.0848 31.8016 16.1423 32.3463 18.2357 32.3462H25.248C25.9538 32.346 26.6461 32.5394 27.2496 32.9053C28.0716 33.3966 29.0113 33.656 29.9689 33.656C30.9266 33.656 31.8663 33.3966 32.6883 32.9053C33.294 32.5453 33.9852 32.3546 34.6898 32.3531H41.7022C43.7934 32.353 45.8486 31.8082 47.6654 30.7726C46.2833 33.2808 44.2645 35.3805 41.8126 36.8601Z" fill="white"/>
<path d="M35.1063 26.8939C36.8642 27.3237 38.5185 28.1004 39.9721 29.1785C40.5768 29.5812 40.1068 29.287 40.7356 29.6665C40.8926 29.7613 41.0871 29.7707 41.2625 29.7169C41.4379 29.6632 41.5847 29.542 41.6708 29.38C41.7568 29.218 41.7749 29.0285 41.7212 28.8531C41.6675 28.6777 41.5463 28.5309 41.3843 28.4448C40.8955 28.1486 41.4794 28.5284 40.7934 28.0742C39.13 26.9729 37.3689 26.0271 35.4307 25.555C35.3418 25.5368 35.2503 25.5364 35.1613 25.5536C35.0723 25.5708 34.9876 25.6054 34.9119 25.6554C34.8363 25.7054 34.7712 25.7698 34.7205 25.845C34.6698 25.9201 34.6343 26.0045 34.6162 26.0933C34.5816 26.2631 34.6121 26.4396 34.7016 26.5879C34.7911 26.7362 34.9331 26.8455 35.0994 26.8939H35.1063Z" fill="white"/>
<path d="M39.4653 35.1257C37.2678 36.4442 34.7534 37.1408 32.1907 37.1411C32.0076 37.1411 31.8321 37.2138 31.7026 37.3432C31.5732 37.4726 31.5005 37.6482 31.5005 37.8312C31.5005 38.0143 31.5732 38.1898 31.7026 38.3193C31.8321 38.4487 32.0076 38.5214 32.1907 38.5214C35.003 38.5192 37.7624 37.7561 40.1762 36.3128C40.3144 36.2123 40.4103 36.0642 40.4456 35.897C40.4808 35.7298 40.4528 35.5555 40.3669 35.4077C40.281 35.26 40.1434 35.1494 39.9807 35.0973C39.8179 35.0452 39.6417 35.0553 39.486 35.1257H39.4653Z" fill="white"/>
</svg>
