<svg width="60" height="61" viewBox="0 0 60 61" fill="none" xmlns="http://www.w3.org/2000/svg">
<ellipse cx="30" cy="30.6836" rx="30" ry="30" fill="#F2A922"/>
<path d="M44.4075 27.8369C43.3319 25.5118 38.8383 25.399 33.1243 27.5009C32.9103 25.8349 33.0083 23.6354 33.1595 21.2214C33.3095 18.8306 32.2463 15.4722 29.5576 13.7478C27.8688 12.6646 24.952 11.8606 20.6436 14.1758C16.3352 16.4914 15.3964 19.3678 15.3676 21.373C15.3216 24.567 17.5352 27.3073 19.6116 28.5013C21.6644 29.6817 23.5156 30.7917 24.7856 31.8677C19.6844 35.5265 17.0896 39.5509 18.4504 41.7856C19.0128 42.7096 20.1164 43.1636 21.674 43.1632C22.64 43.1632 23.7844 42.9848 25.0788 42.6392C25.7708 45.0972 27.366 47.0924 29.4288 48.0416C30.1967 48.3952 31.2091 48.6836 32.4703 48.6836C33.9603 48.6836 35.7975 48.2808 37.9843 47.1056C41.8819 45.0112 43.0671 42.4236 43.3751 40.6216C43.7639 38.3469 43.0343 35.8601 41.4163 33.8649C44.0579 31.5313 45.1446 29.4301 44.4075 27.8369ZM16.5336 21.3902C16.5688 18.963 18.1808 16.8234 21.196 15.2034C22.8676 14.3054 24.434 13.8546 25.8464 13.8546C26.9816 13.8546 28.018 14.1458 28.9284 14.7298C31.2207 16.1998 32.1255 19.0878 31.9959 21.149C31.8167 24.0062 31.7183 26.4785 32.0815 28.3317C32.0847 28.3857 32.0943 28.4397 32.1135 28.4929C32.3091 29.4033 32.6219 30.1585 33.1055 30.7217C33.5447 31.2341 33.4875 31.5417 33.4687 31.6429C33.3151 32.4669 31.6551 33.3589 31.1095 33.6525C30.5639 33.9457 28.9044 34.8365 28.132 34.5109C28.0372 34.4709 27.7488 34.3489 27.5644 33.6997C27.354 32.9589 26.8688 32.2577 26.1784 31.5681C26.1472 31.5281 26.1116 31.4933 26.0728 31.4637C24.7248 30.1601 22.6356 28.8957 20.1936 27.4909C18.4028 26.4609 16.494 24.113 16.5336 21.3902ZM19.4464 41.1796C18.5724 39.7445 20.6668 36.2133 25.6464 32.6917C26.0424 33.1373 26.3172 33.5785 26.4424 34.0181C26.6664 34.8053 27.082 35.3321 27.6776 35.5845C27.9448 35.6973 28.2328 35.7469 28.5348 35.7469C29.5152 35.7469 30.6419 35.2273 31.6615 34.6793C32.9955 33.9625 34.3899 33.0665 34.6151 31.8565C34.7335 31.2205 34.5235 30.5833 33.9903 29.9621C33.7095 29.6349 33.5035 29.1921 33.3523 28.6601C38.9707 26.5553 42.6855 26.8917 43.3491 28.3265C43.9223 29.5645 42.4067 32.9953 33.0919 38.0005C31.6763 38.7609 30.3931 39.3889 29.2296 39.9057C29.2272 39.9069 29.2248 39.9077 29.2228 39.9089C22.772 42.7712 20.046 42.1644 19.4464 41.1796ZM37.2423 36.9425C37.9691 36.8461 38.7203 37.3977 38.9903 38.2297C39.3863 39.4509 38.7419 41.3292 35.7455 42.9392C32.7647 44.5412 30.8435 44.0332 30.0392 43.0236C29.5052 42.3528 29.4408 41.4568 29.8664 40.8912C31.0571 40.3604 32.3179 39.7405 33.6439 39.0281C34.9467 38.3281 36.1419 37.6313 37.2279 36.9433C37.2327 36.9425 37.2375 36.9433 37.2423 36.9425ZM42.2259 40.4248C41.8415 42.6732 40.2287 44.5756 37.4323 46.078C34.5299 47.6372 32.0015 47.9416 29.9168 46.9824C28.1596 46.174 26.7952 44.448 26.1976 42.3112C26.9056 42.0848 27.652 41.8148 28.4352 41.4992C28.3616 42.2584 28.5876 43.0732 29.1264 43.7496C29.4676 44.178 30.4479 45.1492 32.3051 45.1492C33.3463 45.1492 34.6631 44.8436 36.2967 43.9656C39.9255 42.0156 40.6399 39.5377 40.0987 37.8689C39.8303 37.0409 39.2671 36.3969 38.5803 36.0497C39.2851 35.5653 39.9331 35.0865 40.5207 34.6161C41.6491 36.0325 42.6087 38.1849 42.2259 40.4248Z" fill="white"/>
<path d="M28.1104 18.883C28.5036 18.883 28.8508 18.8218 29.1135 18.685C29.5263 18.4698 29.7395 18.0866 29.6995 17.6334C29.5611 16.0655 26.8044 15.1199 25.3596 14.9619C24.032 14.8171 23.604 15.2563 23.4796 15.6503C23.3656 16.0115 23.3096 16.7302 24.2136 17.4886C25.1308 18.2578 26.8536 18.883 28.1104 18.883ZM27.6252 16.875C28.2052 17.1922 28.4652 17.4898 28.5252 17.6766C28.0632 17.8594 26.2632 17.535 25.1348 16.7274C24.8276 16.5078 24.6296 16.2806 24.5908 16.1131C25.0572 16.0231 26.4736 16.2446 27.6252 16.875Z" fill="white"/>
</svg>
