<svg width="60" height="61" viewBox="0 0 60 61" fill="none" xmlns="http://www.w3.org/2000/svg">
<ellipse cx="30" cy="30.6836" rx="30" ry="30" fill="#031CA6"/>
<path d="M45.2806 37.5546C35.1964 37.5546 31.4406 34.6219 30.0514 32.1009C28.6623 34.6219 24.9065 37.5546 14.8223 37.5546C11.9411 37.5546 9.3172 36.4741 7.97951 34.7248C7.05341 33.5415 6.79616 32.2038 7.15631 30.7632C7.82516 28.1907 10.3462 27.6762 10.4491 27.6762C10.7063 27.6248 10.9636 27.7791 11.1179 27.9849C11.2723 28.2422 11.2208 28.4994 11.015 28.7052C10.9636 28.7567 9.57445 30.3001 10.6549 31.3291C10.9121 31.5864 11.1694 31.6893 11.4781 31.6893C12.61 31.6893 14.4107 30.4545 16.9832 28.0364C20.0187 25.1037 22.6427 23.3544 25.6782 23.9204C27.9935 24.332 29.3312 25.6697 30 26.7501C30.7203 25.6697 32.0065 24.3834 34.3218 23.9204C37.3573 23.3544 39.9298 25.1037 43.0168 28.0364C45.5378 30.4545 47.39 31.6893 48.5219 31.6893C48.8306 31.6893 49.1393 31.5864 49.3451 31.3291C50.3741 30.3001 49.0364 28.7567 48.985 28.7052C48.7792 28.4994 48.7792 28.1907 48.8821 27.9849C49.0364 27.7277 49.2937 27.6248 49.5509 27.6762C49.6538 27.6762 52.1748 28.1907 52.8437 30.7632C53.2038 32.1523 52.9466 33.5415 52.0205 34.7248C50.7342 36.4741 48.1103 37.5546 45.2806 37.5546ZM30.0514 29.7856C30.3601 29.7856 30.6174 29.9914 30.6688 30.2487C31.2348 32.5125 33.8587 36.2683 45.2806 36.2683C47.7502 36.2683 50.014 35.3937 51.0944 33.9531C51.7632 33.0784 51.969 32.1009 51.7118 31.1233C51.5574 30.6088 51.3002 30.1972 51.0429 29.8885C51.1973 30.6603 51.0944 31.5349 50.3226 32.3067C49.8596 32.7697 49.2422 33.027 48.5734 33.027C47.0813 33.027 45.1262 31.7922 42.1936 29.0654C39.261 26.2871 37.4088 25.2066 35.5566 25.2066C35.2479 25.2066 34.9392 25.2581 34.6305 25.3095C31.9551 25.824 30.9775 27.6762 30.6688 28.4994C30.5659 28.6538 30.3087 28.8081 30.0514 28.8081C29.7942 28.8081 29.537 28.6538 29.4855 28.3965C29.1768 27.6248 28.1993 25.7211 25.5239 25.2066C25.2152 25.1552 24.9065 25.1037 24.5978 25.1037C22.7456 25.1037 20.8934 26.1842 17.9608 28.9625C15.0281 31.7407 13.073 32.9755 11.581 32.9755C10.9121 32.9755 10.3462 32.7183 9.8317 32.2552C9.05995 31.4835 8.95705 30.6088 9.1114 29.8371C8.8027 30.1458 8.54545 30.5574 8.44255 31.0719C8.18531 32.1009 8.3911 33.0784 9.05995 33.9016C10.1918 35.3422 12.4042 36.2169 14.8738 36.2169C26.2442 36.2169 28.9196 32.461 29.4855 30.1972C29.4855 29.9914 29.7428 29.7856 30.0514 29.7856Z" fill="white"/>
<path d="M24.5075 28.1225C22.8534 28.8842 21.3682 29.9687 20.1391 31.3124C19.64 31.8688 19.0964 32.3837 18.5137 32.8519C18.3702 32.9679 18.1864 33.0222 18.0029 33.0028C17.8193 32.9834 17.651 32.8918 17.535 32.7483C17.4189 32.6048 17.3646 32.421 17.384 32.2375C17.4035 32.0539 17.495 31.8856 17.6385 31.7696C18.1698 31.349 18.664 30.8838 19.116 30.3791C20.4691 28.8962 22.1062 27.7002 23.9303 26.8621C24.0145 26.8272 24.1049 26.8091 24.1961 26.8091C24.2873 26.809 24.3776 26.827 24.4619 26.8619C24.5462 26.8967 24.6228 26.9479 24.6874 27.0124C24.7519 27.0769 24.8031 27.1534 24.838 27.2377C24.9048 27.3987 24.9085 27.579 24.8486 27.7426C24.7886 27.9063 24.6693 28.0414 24.5143 28.1212L24.5075 28.1225Z" fill="white"/>
</svg>
