<svg width="30" height="30" viewBox="0 0 30 30" fill="none" xmlns="http://www.w3.org/2000/svg">
<path d="M11.3242 6.5521L11.3242 6.55209C11.543 6.44001 11.6293 6.17185 11.5176 5.95343C11.4058 5.73472 11.1377 5.64878 10.9192 5.7598L10.9189 5.75995C9.42436 6.52536 8.1802 7.76917 7.41511 9.26373L7.41505 9.26385C7.30347 9.48256 7.38969 9.75035 7.60854 9.86244L7.60861 9.86247C7.82691 9.97407 8.09513 9.88796 8.20692 9.66936C8.88771 8.34009 9.99494 7.23253 11.3242 6.5521ZM18.5375 6.55206L18.5375 6.55209C19.8668 7.23288 20.974 8.3401 21.6544 9.66935L21.6545 9.66936C21.7671 9.88936 22.0358 9.97351 22.2534 9.86251L22.2536 9.8624C22.4721 9.75028 22.5582 9.48252 22.4467 9.26385L22.4466 9.2637C21.6812 7.76951 20.437 6.52572 18.9432 5.7603L18.943 5.76018C18.7237 5.64856 18.4571 5.73546 18.3443 5.95293L18.3441 5.95336C18.2319 6.17242 18.3193 6.4401 18.5375 6.55206ZM21.2379 19.3855V13.2759C21.2379 10.4325 19.3451 8.02771 16.7552 7.24293V6.72414C16.7552 5.71822 15.937 4.9 14.931 4.9C13.9251 4.9 13.1069 5.71822 13.1069 6.72414V7.24293C10.5169 8.02771 8.62414 10.4325 8.62414 13.2759V19.3855C7.66455 19.4375 6.9 20.2345 6.9 21.2069C6.9 22.2128 7.71822 23.031 8.72414 23.031H12.4597C12.6706 24.2053 13.6968 25.1 14.931 25.1C16.1656 25.1 17.1915 24.2053 17.4023 23.031H21.1379C22.1438 23.031 22.9621 22.2128 22.9621 21.2069C22.9621 20.2345 22.1975 19.4375 21.2379 19.3855ZM13.9966 6.72414C13.9966 6.20902 14.4159 5.78966 14.931 5.78966C15.4461 5.78966 15.8655 6.20902 15.8655 6.72414V7.04501C15.561 6.99825 15.2499 6.96897 14.931 6.96897C14.6119 6.96897 14.3008 6.99825 13.9966 7.045V6.72414ZM9.51379 13.2759C9.51379 10.289 11.9442 7.85862 14.931 7.85862C17.9179 7.85862 20.3483 10.289 20.3483 13.2759V19.3828H9.51379V13.2759ZM14.931 24.2103C14.1901 24.2103 13.5631 23.711 13.369 23.031H16.4928C16.299 23.7109 15.6719 24.2103 14.931 24.2103ZM21.1379 22.1414H8.72414C8.20902 22.1414 7.78966 21.722 7.78966 21.2069C7.78966 20.6918 8.20902 20.2724 8.72414 20.2724H21.1379C21.653 20.2724 22.0724 20.6918 22.0724 21.2069C22.0724 21.722 21.653 22.1414 21.1379 22.1414Z" fill="black" stroke="black" stroke-width="0.2"/>
</svg>
