<svg width="30" height="30" viewBox="0 0 30 30" fill="none" xmlns="http://www.w3.org/2000/svg">
<path d="M12.0096 5C11.3927 5 9.84824 5.16171 9.04144 6.62172C8.73 7.1866 8.58022 7.86058 8.58022 8.60795C8.58022 10.6667 9.89998 12.2473 11.236 13.3243C12.572 14.4013 13.9634 15.0115 14.3232 15.1618C14.381 15.1857 14.4429 15.198 14.5054 15.198C14.568 15.198 14.6299 15.1857 14.6877 15.1618C15.0474 15.0118 16.4463 14.401 17.7824 13.3243C19.1184 12.2477 20.4307 10.6683 20.4307 8.60795C20.4307 7.30244 19.9355 6.21687 19.0098 5.58769C19.0069 5.58578 19.0053 5.5822 19.0024 5.58025C18.9777 5.55496 18.9502 5.53251 18.9205 5.5133C18.9084 5.50782 18.8959 5.50285 18.8833 5.49842C18.8809 5.49591 18.8784 5.49343 18.8759 5.49098C18.8634 5.48346 18.8513 5.48339 18.8387 5.4761C18.1616 5.08287 17.467 5 17.0013 5C16.1622 5 15.4888 5.43212 15.0299 5.83318C14.8052 6.02955 14.6267 6.21172 14.5017 6.36135C14.3772 6.21205 14.2039 6.02828 13.981 5.83318C13.5225 5.4319 12.8504 5 12.0096 5ZM12.0096 5.9522C12.5135 5.9522 12.9952 6.23148 13.3561 6.54733C13.5366 6.70525 13.6802 6.86561 13.7801 6.98623C13.8801 7.10686 13.9551 7.21904 13.9289 7.17965C14.0567 7.37233 14.2703 7.48465 14.5017 7.48465C14.7331 7.48465 14.9542 7.37233 15.082 7.17965C15.0546 7.22066 15.1304 7.10696 15.2308 6.98623C15.3311 6.8655 15.4739 6.70539 15.6548 6.54733C16.0165 6.23121 16.5002 5.9522 17.0013 5.9522C17.3649 5.9522 17.9045 6.01508 18.3924 6.30928C18.3951 6.31094 18.397 6.3151 18.3998 6.31672C18.4047 6.31928 18.4097 6.32176 18.4147 6.32416C18.4166 6.32511 18.4202 6.3232 18.4221 6.32416C19.1105 6.75328 19.4785 7.48418 19.4785 8.60795C19.4785 10.2599 18.3993 11.5976 17.1798 12.5804C16.061 13.482 14.9342 14.0065 14.5017 14.1947C14.0659 14.0046 12.9466 13.4797 11.8311 12.5804C10.6114 11.5972 9.53242 10.2579 9.53242 8.60795C9.53242 7.98485 9.65703 7.47759 9.87462 7.08294C10.4456 6.04975 11.5518 5.9522 12.0096 5.9522ZM5.44837 9.86515C5.3489 9.87097 5.25375 9.90784 5.17634 9.97058C5.09893 10.0333 5.04316 10.1188 5.01687 10.2149C4.99058 10.311 4.99511 10.4129 5.02981 10.5063C5.06452 10.5997 5.12765 10.6799 5.21032 10.7355L7.7396 12.5581L9.51754 19.5211C9.73027 20.3506 10.5128 20.9196 11.3699 20.9196H16.4136H16.8822H21.9185C21.9816 20.9205 22.0442 20.9089 22.1028 20.8853C22.1613 20.8618 22.2146 20.8269 22.2595 20.7826C22.3044 20.7383 22.3401 20.6855 22.3645 20.6273C22.3888 20.5691 22.4014 20.5066 22.4014 20.4435C22.4014 20.3804 22.3888 20.318 22.3645 20.2598C22.3401 20.2015 22.3044 20.1488 22.2595 20.1045C22.2146 20.0602 22.1613 20.0252 22.1028 20.0017C22.0442 19.9782 21.9816 19.9665 21.9185 19.9674H16.8822H16.4136H11.3699C10.983 19.9674 10.5235 19.6086 10.44 19.283L10.2838 18.6656L21.3829 17.9812C22.2076 17.9305 22.9416 17.3916 23.2054 16.6198L24.9313 11.5613C25.0762 11.1377 24.985 10.6743 24.723 10.3636C24.461 10.0528 24.0559 9.88747 23.622 9.88747H21.1597C21.1424 9.88652 21.125 9.88652 21.1076 9.88747C21.0451 9.89089 20.9839 9.90658 20.9274 9.93366C20.8709 9.96075 20.8204 9.99869 20.7786 10.0453C20.7368 10.0919 20.7046 10.1463 20.6838 10.2054C20.663 10.2645 20.6541 10.3271 20.6575 10.3896C20.6609 10.4521 20.6766 10.5134 20.7037 10.5698C20.7308 10.6263 20.7688 10.6769 20.8154 10.7187C20.862 10.7604 20.9164 10.7926 20.9755 10.8134C21.0346 10.8342 21.0972 10.8431 21.1597 10.8397H23.622C23.8102 10.8397 23.9341 10.91 23.994 10.981C24.0538 11.052 24.0793 11.1157 24.0312 11.2563L22.3053 16.3148C22.1833 16.6716 21.7412 17.0033 21.3234 17.029L10.0457 17.7283L8.61742 12.1564C8.59079 12.0491 8.52767 11.9544 8.43888 11.8886L5.76081 9.96186C5.67135 9.89375 5.56067 9.85949 5.44837 9.86515V9.86515ZM12.4485 21.366C11.7077 21.366 11.1021 21.9763 11.1021 22.705C11.1021 23.4336 11.7077 24.044 12.4485 24.044C13.1894 24.044 13.795 23.4336 13.795 22.705C13.795 21.9763 13.1894 21.366 12.4485 21.366ZM19.8504 21.366C19.1096 21.366 18.5039 21.9763 18.5039 22.705C18.5039 23.4336 19.1096 24.044 19.8504 24.044C20.5913 24.044 21.1969 23.4336 21.1969 22.705C21.1969 21.9763 20.5913 21.366 19.8504 21.366ZM12.4485 22.3182C12.6631 22.3182 12.8279 22.4796 12.8279 22.705C12.8279 22.9304 12.6631 23.0918 12.4485 23.0918C12.234 23.0918 12.0617 22.9304 12.0617 22.705C12.0617 22.4796 12.234 22.3182 12.4485 22.3182ZM19.8504 22.3182C20.065 22.3182 20.2298 22.4796 20.2298 22.705C20.2298 22.9304 20.065 23.0918 19.8504 23.0918C19.6358 23.0918 19.4636 22.9304 19.4636 22.705C19.4636 22.4796 19.6358 22.3182 19.8504 22.3182Z" fill="black"/>
</svg>
