<svg width="30" height="30" viewBox="0 0 30 30" fill="none" xmlns="http://www.w3.org/2000/svg">
<path fill-rule="evenodd" clip-rule="evenodd" d="M11.0558 15.9369C12.246 15.4439 13.5216 15.1902 14.8098 15.1902C16.0981 15.1902 17.3737 15.4439 18.5639 15.9369C19.7541 16.4299 20.8355 17.1525 21.7465 18.0634C22.6574 18.9743 23.38 20.0557 23.873 21.2459C24.3659 22.4361 24.6197 23.7118 24.6197 25H23.5275C23.5275 23.8552 23.302 22.7216 22.8639 21.6639C22.4258 20.6062 21.7837 19.6452 20.9742 18.8357C20.1647 18.0261 19.2036 17.384 18.146 16.9459C17.0883 16.5078 15.9547 16.2823 14.8098 16.2823C13.665 16.2823 12.5314 16.5078 11.4737 16.9459C10.416 17.384 9.45502 18.0261 8.6455 18.8357C7.83599 19.6452 7.19385 20.6062 6.75574 21.6639C6.31764 22.7216 6.09215 23.8552 6.09215 25H5C5 23.7118 5.25374 22.4361 5.74673 21.2459C6.23972 20.0557 6.96231 18.9743 7.87324 18.0634C8.78416 17.1525 9.86559 16.4299 11.0558 15.9369Z" fill="black"/>
<path fill-rule="evenodd" clip-rule="evenodd" d="M14.8098 6.09215C12.5533 6.09215 10.724 7.92143 10.724 10.178C10.724 12.4345 12.5533 14.2638 14.8098 14.2638C17.0664 14.2638 18.8956 12.4345 18.8956 10.178C18.8956 7.92143 17.0664 6.09215 14.8098 6.09215ZM9.63188 10.178C9.63188 7.31825 11.9501 5 14.8098 5C17.6695 5 19.9878 7.31825 19.9878 10.178C19.9878 13.0377 17.6695 15.3559 14.8098 15.3559C11.9501 15.3559 9.63188 13.0377 9.63188 10.178Z" fill="black"/>
</svg>
