<svg width="30" height="30" viewBox="0 0 30 30" fill="none" xmlns="http://www.w3.org/2000/svg">
<path fill-rule="evenodd" clip-rule="evenodd" d="M11.1732 15.7612C12.3864 15.2587 13.6868 15 15 15C16.3132 15 17.6136 15.2587 18.8268 15.7612C20.0401 16.2638 21.1425 17.0003 22.0711 17.9289C22.9997 18.8575 23.7362 19.9599 24.2388 21.1732C24.7413 22.3864 25 23.6868 25 25H23.1818C23.1818 23.9255 22.9702 22.8616 22.559 21.869C22.1478 20.8763 21.5452 19.9743 20.7854 19.2146C20.0257 18.4548 19.1237 17.8522 18.131 17.441C17.1384 17.0298 16.0745 16.8182 15 16.8182C13.9255 16.8182 12.8616 17.0298 11.869 17.441C10.8763 17.8522 9.97433 18.4548 9.21458 19.2146C8.45483 19.9743 7.85216 20.8763 7.44099 21.869C7.02981 22.8616 6.81818 23.9255 6.81818 25H5C5 23.6868 5.25866 22.3864 5.7612 21.1732C6.26375 19.9599 7.00035 18.8575 7.92893 17.9289C8.85752 17.0003 9.95991 16.2638 11.1732 15.7612Z" fill="black"/>
<path fill-rule="evenodd" clip-rule="evenodd" d="M15 6.81818C12.9917 6.81818 11.3636 8.44624 11.3636 10.4545C11.3636 12.4629 12.9917 14.0909 15 14.0909C17.0083 14.0909 18.6364 12.4629 18.6364 10.4545C18.6364 8.44624 17.0083 6.81818 15 6.81818ZM9.54545 10.4545C9.54545 7.44208 11.9875 5 15 5C18.0125 5 20.4545 7.44208 20.4545 10.4545C20.4545 13.467 18.0125 15.9091 15 15.9091C11.9875 15.9091 9.54545 13.467 9.54545 10.4545Z" fill="black"/>
</svg>
