<svg width="30" height="30" viewBox="0 -5 22 30" fill="none" xmlns="http://www.w3.org/2000/svg">
    <path
        d="M1.95238 1C1.433 1 1 1.433 1 1.95238V4.80952C1 5.3289 1.433 5.7619 1.95238 5.7619H2.19048V16.7143C2.19049 17.2299 2.61205 17.6667 3.14286 17.6667H18.8571C19.388 17.6667 19.8095 17.2299 19.8095 16.7143V5.7619H20.0476C20.567 5.7619 21 5.3289 21 4.80952V1.95238C21 1.433 20.567 1 20.0476 1H1.95238ZM1.95238 1.95238H20.0476V4.80952H1.95238V1.95238ZM3.14286 5.7619H18.8571V16.7143H3.14286V5.7619ZM8.85714 7.71429C8.20595 7.71429 7.66667 8.25357 7.66667 8.90476C7.66667 9.55595 8.20595 10.0952 8.85714 10.0952H13.1429C13.7941 10.0952 14.3333 9.55595 14.3333 8.90476C14.3333 8.25357 13.7941 7.71429 13.1429 7.71429H8.85714ZM8.85714 8.66667H13.1429C13.2829 8.66667 13.381 8.76471 13.381 8.90476C13.381 9.04481 13.2829 9.14286 13.1429 9.14286H8.85714C8.71709 9.14286 8.61905 9.04481 8.61905 8.90476C8.61905 8.76471 8.71709 8.66667 8.85714 8.66667Z"
        fill="black" stroke="black" stroke-width="0.2" />
</svg>
