<svg width="30" height="30" viewBox="0 0 30 30" fill="none" xmlns="http://www.w3.org/2000/svg">
<path fill-rule="evenodd" clip-rule="evenodd" d="M13.2922 6.84271C9.73025 6.84271 6.84271 9.73025 6.84271 13.2922C6.84271 16.8542 9.73025 19.7417 13.2922 19.7417C16.8542 19.7417 19.7417 16.8542 19.7417 13.2922C19.7417 9.73025 16.8542 6.84271 13.2922 6.84271ZM5 13.2922C5 8.71255 8.71255 5 13.2922 5C17.8719 5 21.5844 8.71255 21.5844 13.2922C21.5844 17.8719 17.8719 21.5844 13.2922 21.5844C8.71255 21.5844 5 17.8719 5 13.2922Z" fill="black"/>
<path fill-rule="evenodd" clip-rule="evenodd" d="M19.1365 17.8335L25 23.697L23.697 25L17.8335 19.1365L19.1365 17.8335Z" fill="black"/>
</svg>
