<svg width="30" height="30" viewBox="0 0 30 30" fill="none" xmlns="http://www.w3.org/2000/svg">
<path d="M22.606 14.553C22.5126 14.6111 22.4558 14.7132 22.4558 14.8232V14.8232C22.4558 14.8821 22.4591 14.9411 22.4656 15V15.1768V15.1768C22.4656 15.2851 22.5143 15.39 22.6063 15.4472L25 16.9352L23.4381 20.6974L20.8593 20.107C20.6498 20.059 20.4319 20.128 20.28 20.28V20.28C20.128 20.4319 20.059 20.6498 20.107 20.8593L20.6974 23.4381L16.9352 25L15.447 22.606C15.3889 22.5126 15.2868 22.4558 15.1768 22.4558V22.4558C15.1179 22.4558 15.0589 22.4591 15 22.4656H14.8232V22.4656C14.7149 22.4656 14.61 22.5143 14.5528 22.6063L13.0648 25L9.30255 23.4381L9.893 20.8593C9.94095 20.6498 9.87197 20.4319 9.72004 20.28V20.28C9.56811 20.128 9.35018 20.059 9.14074 20.107L6.56189 20.6974L5 16.9352L7.39404 15.447C7.48742 15.3889 7.5442 15.2868 7.5442 15.1768V15.1768C7.5442 15.1179 7.54093 15.0589 7.53438 15V14.8232V14.8232C7.53438 14.7149 7.48567 14.61 7.39373 14.5528L5 13.0648L6.56189 9.30255L9.14074 9.893C9.35018 9.94095 9.56811 9.87197 9.72004 9.72004V9.72004C9.87197 9.56811 9.94095 9.35018 9.893 9.14074L9.30255 6.56189L13.0648 5L14.553 7.39404C14.6111 7.48742 14.7132 7.5442 14.8232 7.5442V7.5442C14.8821 7.5442 14.9411 7.54093 15 7.53438H15.1768V7.53438C15.2851 7.53438 15.39 7.48567 15.4472 7.39373L16.9352 5L20.6974 6.56189L20.107 9.14074C20.059 9.35018 20.128 9.56811 20.28 9.72004V9.72004C20.4319 9.87197 20.6498 9.94095 20.8593 9.893L23.4381 9.30255L25 13.0648L22.606 14.553ZM21.699 16.1696C21.4579 16.0183 21.3211 15.7452 21.3458 15.4617V15.4617C21.3589 15.3111 21.3654 15.1539 21.3654 14.9902C21.3654 14.8396 21.3589 14.6857 21.3458 14.5285V14.5285C21.3222 14.2452 21.4585 13.9721 21.6998 13.8218L23.6248 12.6228L22.78 10.5796L20.7251 11.0573C20.3534 11.1437 19.9687 11.0075 19.7087 10.7282C19.6392 10.6535 19.5693 10.5811 19.499 10.5108C19.4255 10.4373 19.3492 10.3638 19.2701 10.2903C18.9912 10.0313 18.8561 9.64748 18.9423 9.27681L19.4204 7.22004L17.3772 6.37525L16.1696 8.30096C16.0184 8.54193 15.7451 8.67785 15.4617 8.65422V8.65422C15.3045 8.64113 15.1506 8.63458 15 8.63458C14.8428 8.63458 14.6889 8.64113 14.5383 8.65422V8.65422C14.2488 8.6794 13.9703 8.53859 13.8166 8.29191L12.6228 6.37525L10.5796 7.22004L11.0573 9.2749C11.1437 9.64656 11.0075 10.0313 10.7282 10.2913C10.6535 10.3608 10.5811 10.4307 10.5108 10.501C10.4373 10.5745 10.3638 10.6508 10.2903 10.7299C10.0313 11.0088 9.64748 11.1439 9.27681 11.0577L7.22004 10.5796L6.37525 12.6228L8.30096 13.8304C8.54208 13.9817 8.67888 14.2548 8.65422 14.5383V14.5383C8.64113 14.6889 8.63458 14.8461 8.63458 15.0098C8.63458 15.1604 8.64113 15.3143 8.65422 15.4715V15.4715C8.67783 15.7548 8.54152 16.0279 8.30021 16.1782L6.37525 17.3772L7.22004 19.4204L9.2749 18.9427C9.64656 18.8563 10.0313 18.9925 10.2913 19.2718C10.3608 19.3465 10.4307 19.4189 10.501 19.4892C10.5745 19.5627 10.6508 19.6362 10.7299 19.7097C11.0088 19.9687 11.1439 20.3525 11.0577 20.7232L10.5796 22.78L12.6228 23.6248L13.8304 21.699C13.9816 21.4581 14.2549 21.3222 14.5383 21.3458V21.3458C14.6955 21.3589 14.8494 21.3654 15 21.3654C15.1572 21.3654 15.3111 21.3589 15.4617 21.3458V21.3458C15.7512 21.3206 16.0297 21.4614 16.1834 21.7081L17.3772 23.6248L19.4204 22.78L18.9427 20.7251C18.8563 20.3534 18.9925 19.9687 19.2718 19.7087C19.3465 19.6392 19.4189 19.5693 19.4892 19.499C19.5627 19.4255 19.6362 19.3492 19.7097 19.2701C19.9687 18.9912 20.3525 18.8561 20.7232 18.9423L22.78 19.4204L23.6248 17.3772L21.699 16.1696ZM15 11.3065C15.5108 11.3065 15.9889 11.4014 16.4342 11.5914C16.8795 11.7813 17.2724 12.0465 17.613 12.387C17.9535 12.7276 18.2155 13.1172 18.3988 13.556C18.5822 13.9948 18.6804 14.4761 18.6935 15C18.6935 15.5108 18.5986 15.9889 18.4086 16.4342C18.2187 16.8795 17.9535 17.2724 17.613 17.613C17.2724 17.9535 16.8828 18.2155 16.444 18.3988C16.0052 18.5822 15.5239 18.6804 15 18.6935C14.4892 18.6935 14.0111 18.5986 13.5658 18.4086C13.1205 18.2187 12.7276 17.9535 12.387 17.613C12.0465 17.2724 11.7845 16.8828 11.6012 16.444C11.4178 16.0052 11.3196 15.5239 11.3065 15C11.3065 14.4892 11.4014 14.0111 11.5914 13.5658C11.7813 13.1205 12.0465 12.7276 12.387 12.387C12.7276 12.0465 13.1172 11.7845 13.556 11.6012C13.9948 11.4178 14.4761 11.3196 15 11.3065ZM15 17.5933C15.3602 17.5933 15.6974 17.5278 16.0118 17.3969C16.3261 17.2659 16.6012 17.0792 16.8369 16.8369C17.0727 16.5946 17.2561 16.3196 17.387 16.0118C17.518 15.704 17.5868 15.3667 17.5933 15C17.5933 14.6398 17.5278 14.3026 17.3969 13.9882C17.2659 13.6739 17.0792 13.3988 16.8369 13.1631C16.5946 12.9273 16.3196 12.7439 16.0118 12.613C15.704 12.482 15.3667 12.4132 15 12.4067C14.6398 12.4067 14.3026 12.4722 13.9882 12.6031C13.6739 12.7341 13.3988 12.9208 13.1631 13.1631C12.9273 13.4054 12.7439 13.6804 12.613 13.9882C12.482 14.296 12.4132 14.6333 12.4067 15C12.4067 15.3602 12.4722 15.6974 12.6031 16.0118C12.7341 16.3261 12.9208 16.6012 13.1631 16.8369C13.4054 17.0727 13.6804 17.2561 13.9882 17.387C14.296 17.518 14.6333 17.5868 15 17.5933Z" fill="black"/>
</svg>
