<svg width="30" height="30" viewBox="0 0 30 30" fill="none" xmlns="http://www.w3.org/2000/svg">
<path d="M22.4558 14.6464V14.8232C22.4558 14.8821 22.4591 14.9411 22.4656 15V15.1768C22.4656 15.2358 22.4623 15.2947 22.4558 15.3536L25 16.9352L23.4381 20.6974L20.5206 20.0295C20.3635 20.1997 20.1997 20.3635 20.0295 20.5206L20.6974 23.4381L16.9352 25L15.3536 22.4558H15.1768C15.1179 22.4558 15.0589 22.4591 15 22.4656H14.8232C14.7642 22.4656 14.7053 22.4623 14.6464 22.4558L13.0648 25L9.30255 23.4381L9.97053 20.5206C9.80026 20.3635 9.63654 20.1997 9.47937 20.0295L6.56189 20.6974L5 16.9352L7.5442 15.3536V15.1768C7.5442 15.1179 7.54093 15.0589 7.53438 15V14.8232C7.53438 14.7642 7.53766 14.7053 7.5442 14.6464L5 13.0648L6.56189 9.30255L9.47937 9.97053C9.63654 9.80026 9.80026 9.63654 9.97053 9.47937L9.30255 6.56189L13.0648 5L14.6464 7.5442H14.8232C14.8821 7.5442 14.9411 7.54093 15 7.53438H15.1768C15.2358 7.53438 15.2947 7.53766 15.3536 7.5442L16.9352 5L20.6974 6.56189L20.0295 9.47937C20.1997 9.63654 20.3635 9.80026 20.5206 9.97053L23.4381 9.30255L25 13.0648L22.4558 14.6464ZM21.3065 15.9234C21.3196 15.7662 21.3327 15.6123 21.3458 15.4617C21.3589 15.3111 21.3654 15.1539 21.3654 14.9902C21.3654 14.8396 21.3589 14.6857 21.3458 14.5285C21.3327 14.3713 21.3196 14.2174 21.3065 14.0668L23.6248 12.6228L22.78 10.5796L20.1179 11.1984C19.9149 10.9496 19.7086 10.7204 19.499 10.5108C19.2895 10.3012 19.057 10.0917 18.8016 9.88212L19.4204 7.22004L17.3772 6.37525L15.9234 8.69352C15.7728 8.68042 15.6189 8.66732 15.4617 8.65422C15.3045 8.64113 15.1506 8.63458 15 8.63458C14.8428 8.63458 14.6889 8.64113 14.5383 8.65422C14.3877 8.66732 14.2305 8.68042 14.0668 8.69352L12.6228 6.37525L10.5796 7.22004L11.1984 9.88212C10.9496 10.0851 10.7204 10.2914 10.5108 10.501C10.3012 10.7105 10.0917 10.943 9.88212 11.1984L7.22004 10.5796L6.37525 12.6228L8.69352 14.0766C8.68042 14.2338 8.66732 14.3877 8.65422 14.5383C8.64113 14.6889 8.63458 14.8461 8.63458 15.0098C8.63458 15.1604 8.64113 15.3143 8.65422 15.4715C8.66732 15.6287 8.68042 15.7826 8.69352 15.9332L6.37525 17.3772L7.22004 19.4204L9.88212 18.8016C10.0851 19.0504 10.2914 19.2796 10.501 19.4892C10.7105 19.6988 10.943 19.9083 11.1984 20.1179L10.5796 22.78L12.6228 23.6248L14.0766 21.3065C14.2272 21.3196 14.3811 21.3327 14.5383 21.3458C14.6955 21.3589 14.8494 21.3654 15 21.3654C15.1572 21.3654 15.3111 21.3589 15.4617 21.3458C15.6123 21.3327 15.7695 21.3196 15.9332 21.3065L17.3772 23.6248L19.4204 22.78L18.8016 20.1179C19.0504 19.9149 19.2796 19.7086 19.4892 19.499C19.6988 19.2895 19.9083 19.057 20.1179 18.8016L22.78 19.4204L23.6248 17.3772L21.3065 15.9234ZM15 11.3065C15.5108 11.3065 15.9889 11.4014 16.4342 11.5914C16.8795 11.7813 17.2724 12.0465 17.613 12.387C17.9535 12.7276 18.2155 13.1172 18.3988 13.556C18.5822 13.9948 18.6804 14.4761 18.6935 15C18.6935 15.5108 18.5986 15.9889 18.4086 16.4342C18.2187 16.8795 17.9535 17.2724 17.613 17.613C17.2724 17.9535 16.8828 18.2155 16.444 18.3988C16.0052 18.5822 15.5239 18.6804 15 18.6935C14.4892 18.6935 14.0111 18.5986 13.5658 18.4086C13.1205 18.2187 12.7276 17.9535 12.387 17.613C12.0465 17.2724 11.7845 16.8828 11.6012 16.444C11.4178 16.0052 11.3196 15.5239 11.3065 15C11.3065 14.4892 11.4014 14.0111 11.5914 13.5658C11.7813 13.1205 12.0465 12.7276 12.387 12.387C12.7276 12.0465 13.1172 11.7845 13.556 11.6012C13.9948 11.4178 14.4761 11.3196 15 11.3065ZM15 17.5933C15.3602 17.5933 15.6974 17.5278 16.0118 17.3969C16.3261 17.2659 16.6012 17.0792 16.8369 16.8369C17.0727 16.5946 17.2561 16.3196 17.387 16.0118C17.518 15.704 17.5868 15.3667 17.5933 15C17.5933 14.6398 17.5278 14.3026 17.3969 13.9882C17.2659 13.6739 17.0792 13.3988 16.8369 13.1631C16.5946 12.9273 16.3196 12.7439 16.0118 12.613C15.704 12.482 15.3667 12.4132 15 12.4067C14.6398 12.4067 14.3026 12.4722 13.9882 12.6031C13.6739 12.7341 13.3988 12.9208 13.1631 13.1631C12.9273 13.4054 12.7439 13.6804 12.613 13.9882C12.482 14.296 12.4132 14.6333 12.4067 15C12.4067 15.3602 12.4722 15.6974 12.6031 16.0118C12.7341 16.3261 12.9208 16.6012 13.1631 16.8369C13.4054 17.0727 13.6804 17.2561 13.9882 17.387C14.296 17.518 14.6333 17.5868 15 17.5933Z" fill="black"/>
</svg>
