<svg width="30" height="30" viewBox="0 0 30 30" fill="none" xmlns="http://www.w3.org/2000/svg">
<path fill-rule="evenodd" clip-rule="evenodd" d="M14.8898 5.13787L18.0264 8.32517C18.2415 8.5441 18.2415 8.90194 18.0264 9.12162C17.9223 9.22806 17.7841 9.28619 17.6377 9.28619C17.4906 9.28544 17.354 9.22806 17.2498 9.12162L15.1411 6.97989V18.3974C15.1411 18.7084 14.8943 18.9606 14.5909 18.9606C14.2875 18.9606 14.0408 18.7084 14.0408 18.3974V7.00707L11.9577 9.12162C11.7494 9.33451 11.3879 9.33375 11.1811 9.12237C10.9653 8.90193 10.9653 8.5441 11.1811 8.32517L14.3177 5.13787C14.4989 4.95367 14.7102 4.95442 14.8898 5.13787M21.2075 13.1099V23.6789C21.2075 24.4081 20.6158 25 19.8868 25H9.32075C8.59094 25 8 24.4081 8 23.6789V13.1099C8 12.3799 8.59094 11.7888 9.32075 11.7888H12.1434V12.9212H9.8234C9.44151 12.9212 9.13208 13.2307 9.13208 13.6127V23.1761C9.13208 23.5573 9.44151 23.8676 9.8234 23.8676H19.3842C19.766 23.8676 20.0755 23.5573 20.0755 23.1761V13.6127C20.0755 13.2307 19.766 12.9212 19.3842 12.9212H17.0566V11.7888H19.8868C20.6158 11.7888 21.2075 12.3799 21.2075 13.1099" fill="black"/>
</svg>
