<svg width="17" height="20" viewBox="0 0 17 20" fill="none" xmlns="http://www.w3.org/2000/svg">
<path d="M15.4475 5.08164C15.287 5.16353 15.0892 5.10129 15.0063 4.93946C14.3508 3.65893 13.2845 2.59264 12.004 1.93681L15.4475 5.08164ZM15.4475 5.08164C15.6084 4.99908 15.6719 4.80188 15.5897 4.64071C14.8716 3.23896 13.7041 2.07177 12.3027 1.35371L15.4475 5.08164ZM5.11024 2.02582L5.11026 2.02581C5.32061 1.91808 5.40354 1.66031 5.29622 1.45036C5.18874 1.24011 4.93095 1.15752 4.72094 1.26423L4.72066 1.26437C3.29993 1.992 2.11721 3.17438 1.3899 4.59514L1.38984 4.59526C1.28259 4.80549 1.36547 5.0629 1.57583 5.17064L1.5759 5.17068C1.78573 5.27795 2.04356 5.19518 2.15103 4.98505C2.7973 3.72317 3.8484 2.67175 5.11024 2.02582ZM2.06202 4.93946C1.9798 5.10031 1.78226 5.16386 1.62142 5.08164L4.76624 1.35338C4.92742 1.27148 5.12495 1.33503 5.20718 1.49588C5.2894 1.65672 5.22585 1.85426 5.06468 1.93681C3.78414 2.59231 2.71785 3.65893 2.06202 4.93946ZM11.9583 2.02578L11.9584 2.02582C13.2202 2.67208 14.2713 3.72318 14.9173 4.98503L14.9173 4.98505C15.0256 5.19653 15.2839 5.2774 15.493 5.17071L15.4932 5.1706C15.7032 5.06283 15.786 4.80545 15.6788 4.59526L15.6787 4.59511C14.9511 3.1747 13.7684 1.99233 12.3483 1.26471L12.3481 1.26459C12.1374 1.1573 11.881 1.24084 11.7727 1.44986L11.7725 1.45029C11.6646 1.66086 11.7486 1.91816 11.9583 2.02578ZM14.531 14.2083V8.40894C14.531 5.70676 12.7331 3.42123 10.2724 2.67395V2.18481C10.2724 1.22642 9.49287 0.446875 8.53448 0.446875C7.5761 0.446875 6.79655 1.22642 6.79655 2.18481V2.67395C4.33587 3.42123 2.53793 5.70676 2.53793 8.40894V14.2083C1.62591 14.2603 0.9 15.0186 0.9 15.9434C0.9 16.9018 1.67955 17.6814 2.63793 17.6814H6.18256C6.38499 18.7972 7.3609 19.6469 8.53448 19.6469C9.70839 19.6469 10.684 18.7972 10.8864 17.6814H14.431C15.3894 17.6814 16.169 16.9018 16.169 15.9434C16.169 15.0186 15.4431 14.2603 14.531 14.2083ZM7.65172 2.18481C7.65172 1.69821 8.04788 1.30205 8.53448 1.30205C9.02108 1.30205 9.41724 1.69821 9.41724 2.18481V2.48381C9.12959 2.43988 8.83567 2.41239 8.53448 2.41239C8.23305 2.41239 7.93913 2.43987 7.65172 2.4838V2.18481ZM3.3931 8.40894C3.3931 5.57421 5.69975 3.26756 8.53448 3.26756C11.3692 3.26756 13.6759 5.57421 13.6759 8.40894V14.2055H3.3931V8.40894ZM8.53448 18.7917C7.83525 18.7917 7.24305 18.3219 7.05721 17.6814H10.0115C9.82591 18.3219 9.23374 18.7917 8.53448 18.7917ZM14.431 16.8262H2.63793C2.15133 16.8262 1.75517 16.43 1.75517 15.9434C1.75517 15.4568 2.15133 15.0607 2.63793 15.0607H14.431C14.9176 15.0607 15.3138 15.4568 15.3138 15.9434C15.3138 16.43 14.9176 16.8262 14.431 16.8262Z" fill="black" stroke="black" stroke-width="0.2"/>
</svg>
