<svg width="20" height="20" viewBox="0 0 20 20" fill="none" xmlns="http://www.w3.org/2000/svg">
<path d="M15.5 19.5469H0.5C0.224 19.5469 0 19.3219 0 19.0469V6.04688C0 5.77088 0.224 5.54688 0.5 5.54688H15.5C15.775 5.54688 16 5.77088 16 6.04688V19.0469C16 19.3219 15.775 19.5469 15.5 19.5469ZM1 18.5469H15V6.54688H1V18.5469Z" fill="black"/>
<path d="M15.5002 19.5469C15.4152 19.5469 15.3302 19.5259 15.2522 19.4809C15.0122 19.3439 14.9302 19.0399 15.0642 18.7989L19.0002 11.9139V1.54688H18.0002C17.7252 1.54688 17.5002 1.32288 17.5002 1.04688C17.5002 0.770875 17.7252 0.546875 18.0002 0.546875H19.5002C19.7752 0.546875 20.0002 0.770875 20.0002 1.04688V12.0469C20.0002 12.1339 19.9792 12.2189 19.9362 12.2949L15.9362 19.2949C15.8422 19.4569 15.6732 19.5469 15.5002 19.5469Z" fill="black"/>
<path d="M0.500184 6.54688C0.391184 6.54688 0.280184 6.51087 0.188184 6.43787C-0.0268155 6.26487 -0.0618156 5.95088 0.110184 5.73488L4.11018 0.734875C4.20518 0.615875 4.34818 0.546875 4.50018 0.546875H19.5002C19.6952 0.546875 19.8722 0.659875 19.9542 0.836875C20.0352 1.01387 20.0072 1.22187 19.8812 1.37087L15.6312 6.37088C15.4532 6.58088 15.1392 6.60787 14.9262 6.42787C14.7162 6.24887 14.6922 5.93388 14.8692 5.72288L18.4192 1.54688H4.74018L0.890185 6.35987C0.792185 6.48287 0.646184 6.54688 0.500184 6.54688Z" fill="black"/>
<path d="M10 10.5469H6C5.724 10.5469 5.5 10.3229 5.5 10.0469C5.5 9.77088 5.724 9.54688 6 9.54688H10C10.276 9.54688 10.5 9.77088 10.5 10.0469C10.5 10.3229 10.276 10.5469 10 10.5469Z" fill="black"/>
<path d="M7.25003 6.54691C7.13503 6.54691 7.02003 6.50791 6.92603 6.42791C6.71603 6.24891 6.69003 5.93391 6.86903 5.72291L11.119 0.722907C11.298 0.512907 11.614 0.486907 11.824 0.665907C12.034 0.844907 12.06 1.15991 11.881 1.37091L7.63103 6.37091C7.53203 6.48691 7.39203 6.54691 7.25003 6.54691Z" fill="black"/>
</svg>
