<svg width="20" height="17" viewBox="0 0 20 17" fill="none" xmlns="http://www.w3.org/2000/svg">
<path d="M18.7097 17H1.26951C0.49948 17 0 16.434 0 15.5648V4.36623C0 3.47681 0.74922 2.74911 1.66493 2.74911H5.22373C5.26535 2.66825 5.32778 2.5874 5.36941 2.48633C5.57752 2.14269 5.86889 1.63734 6.11863 1.19263C6.45161 0.565993 6.88866 0.282996 7.18002 0.141498C7.38814 0.040428 7.61707 0 7.86681 0H12.1332C12.3829 0 12.6119 0.040428 12.82 0.141498C13.1113 0.282996 13.5484 0.565993 13.8814 1.19263C14.1103 1.65755 14.4225 2.1629 14.6306 2.50654C14.693 2.60761 14.7347 2.68847 14.7763 2.76932H18.3351C19.2508 2.76932 20 3.49703 20 4.38644V15.6052C19.9792 16.434 19.4797 17 18.7097 17ZM1.64412 3.75981C1.31113 3.75981 1.01977 4.04281 1.01977 4.36623V15.585C1.01977 16.0095 1.20708 16.0095 1.2487 16.0095H18.6889C18.7513 16.0095 18.9178 16.0095 18.9178 15.585V4.36623C18.9178 4.04281 18.6472 3.75981 18.2934 3.75981H14.7347C14.3809 3.75981 14.0271 3.57788 13.8814 3.29489C13.8606 3.23424 13.7773 3.13317 13.6941 2.99168C13.486 2.64804 13.1738 2.12247 12.924 1.63734C12.7367 1.27348 12.5078 1.11177 12.3413 1.03092C12.2789 1.0107 12.1956 0.990487 12.1124 0.990487H7.86681C7.78356 0.990487 7.70031 1.0107 7.63788 1.03092C7.4922 1.11177 7.26327 1.27348 7.05515 1.63734C6.80541 2.10226 6.49324 2.62782 6.28512 2.99168C6.20187 3.13317 6.13944 3.23424 6.09781 3.3151C5.97294 3.57788 5.61915 3.75981 5.26535 3.75981H1.64412ZM5.1821 2.82996C5.1821 2.82996 5.16129 2.82996 5.1821 2.82996C5.16129 2.82996 5.1821 2.82996 5.1821 2.82996Z" fill="black"/>
<path d="M17.6627 4.53693H15.7708C15.5748 4.53693 15.416 4.69273 15.416 4.88493C15.416 5.07713 15.5748 5.23293 15.7708 5.23293H17.6627C17.8586 5.23293 18.0175 5.07713 18.0175 4.88493C18.0175 4.69273 17.8586 4.53693 17.6627 4.53693Z" fill="black" stroke="black" stroke-width="0.2"/>
<path fill-rule="evenodd" clip-rule="evenodd" d="M10.1306 13.6108C7.892 13.6108 6.1665 11.9181 6.1665 9.72197C6.1665 7.74193 7.892 6.04922 10.1306 6.04922C12.149 6.04922 13.8745 7.74193 13.8745 9.72197C13.8745 11.9181 12.149 13.6108 10.1306 13.6108ZM13.1037 9.72197C13.1037 11.5414 11.8219 12.8546 10.1306 12.8546C8.24675 12.8546 6.90986 11.57 6.90986 9.72197C6.90986 8.06287 8.27594 6.80538 10.1306 6.80538C11.7943 6.80538 13.1037 8.08994 13.1037 9.72197Z" fill="black" stroke="black" stroke-width="0.2"/>
</svg>
