<svg width="24" height="20" viewBox="0 0 24 20" fill="none" xmlns="http://www.w3.org/2000/svg">
<path d="M24 1.5V19.5H0V1.5H6.43359L7.93359 0H16.0664L17.5664 1.5H24ZM22.5 3H16.9336L15.4336 1.5H8.56641L7.06641 3H1.5V18H22.5V3ZM12 4.5C12.8281 4.5 13.6055 4.65625 14.332 4.96875C15.0586 5.28125 15.6953 5.70703 16.2422 6.24609C16.7891 6.78516 17.2188 7.42188 17.5312 8.15625C17.8438 8.89062 18 9.67188 18 10.5C18 11.3281 17.8438 12.1055 17.5312 12.832C17.2188 13.5586 16.793 14.1953 16.2539 14.7422C15.7148 15.2891 15.0781 15.7188 14.3438 16.0312C13.6094 16.3438 12.8281 16.5 12 16.5C11.1719 16.5 10.3945 16.3438 9.66797 16.0312C8.94141 15.7188 8.30469 15.293 7.75781 14.7539C7.21094 14.2148 6.78125 13.5781 6.46875 12.8438C6.15625 12.1094 6 11.3281 6 10.5C6 9.67188 6.15625 8.89453 6.46875 8.16797C6.78125 7.44141 7.20703 6.80469 7.74609 6.25781C8.28516 5.71094 8.92188 5.28125 9.65625 4.96875C10.3906 4.65625 11.1719 4.5 12 4.5ZM12 15C12.6172 15 13.1992 14.8828 13.7461 14.6484C14.293 14.4141 14.7695 14.0898 15.1758 13.6758C15.582 13.2617 15.9023 12.7852 16.1367 12.2461C16.3711 11.707 16.4922 11.125 16.5 10.5C16.5 9.88281 16.3828 9.30078 16.1484 8.75391C15.9141 8.20703 15.5898 7.73047 15.1758 7.32422C14.7617 6.91797 14.2852 6.59766 13.7461 6.36328C13.207 6.12891 12.625 6.00781 12 6C11.3828 6 10.8008 6.11719 10.2539 6.35156C9.70703 6.58594 9.23047 6.91016 8.82422 7.32422C8.41797 7.73828 8.09766 8.21484 7.86328 8.75391C7.62891 9.29297 7.50781 9.875 7.5 10.5C7.5 11.1172 7.61719 11.6992 7.85156 12.2461C8.08594 12.793 8.41016 13.2695 8.82422 13.6758C9.23828 14.082 9.71484 14.4023 10.2539 14.6367C10.793 14.8711 11.375 14.9922 12 15ZM3.75 4.5C3.95312 4.5 4.12891 4.57422 4.27734 4.72266C4.42578 4.87109 4.5 5.04688 4.5 5.25C4.5 5.45312 4.42578 5.62891 4.27734 5.77734C4.12891 5.92578 3.95312 6 3.75 6C3.54688 6 3.37109 5.92578 3.22266 5.77734C3.07422 5.62891 3 5.45312 3 5.25C3 5.04688 3.07422 4.87109 3.22266 4.72266C3.37109 4.57422 3.54688 4.5 3.75 4.5Z" fill="black"/>
</svg>
