<svg width="32" height="22" viewBox="0 0 32 22" fill="none" xmlns="http://www.w3.org/2000/svg">
<path d="M29.5 0C29.8438 0 30.1667 0.0625 30.4688 0.1875C30.7708 0.3125 31.0365 0.494792 31.2656 0.734375C31.4948 0.973958 31.6719 1.23958 31.7969 1.53125C31.9219 1.82292 31.9896 2.14583 32 2.5V19.5C32 19.8438 31.9375 20.1667 31.8125 20.4688C31.6875 20.7708 31.5052 21.0365 31.2656 21.2656C31.026 21.4948 30.7604 21.6719 30.4688 21.7969C30.1771 21.9219 29.8542 21.9896 29.5 22H2.5C2.15625 22 1.83333 21.9375 1.53125 21.8125C1.22917 21.6875 0.963542 21.5052 0.734375 21.2656C0.505208 21.026 0.328125 20.7604 0.203125 20.4688C0.078125 20.1771 0.0104167 19.8542 0 19.5V2.5C0 2.15625 0.0625 1.83333 0.1875 1.53125C0.3125 1.22917 0.494792 0.963542 0.734375 0.734375C0.973958 0.505208 1.23958 0.328125 1.53125 0.203125C1.82292 0.078125 2.14583 0.0104167 2.5 0H29.5ZM2.5 2C2.35417 2 2.23438 2.04688 2.14062 2.14062C2.04688 2.23438 2 2.35417 2 2.5V6H30V2.5C30 2.35417 29.9531 2.23438 29.8594 2.14062C29.7656 2.04688 29.6458 2 29.5 2H2.5ZM29.5 20C29.6458 20 29.7656 19.9531 29.8594 19.8594C29.9531 19.7656 30 19.6458 30 19.5V8H2V19.5C2 19.6458 2.04688 19.7656 2.14062 19.8594C2.23438 19.9531 2.35417 20 2.5 20H29.5ZM22 14H26V16H22V14Z" fill="black"/>
</svg>
