<svg width="19" height="18" viewBox="0 0 19 18" fill="none" xmlns="http://www.w3.org/2000/svg">
<mask id="path-1-inside-1" fill="white">
<path fill-rule="evenodd" clip-rule="evenodd" d="M13.775 0.546875C12.122 0.546875 10.5355 1.31637 9.5 2.53237C8.4645 1.31637 6.878 0.546875 5.225 0.546875C2.299 0.546875 0 2.84587 0 5.77187C0 9.36287 3.23 12.2889 8.1225 16.7349L9.5 17.9794L10.8775 16.7254C15.77 12.2889 19 9.36287 19 5.77187C19 2.84587 16.701 0.546875 13.775 0.546875Z"/>
</mask>
<path d="M9.5 2.53237L8.51024 3.37522L9.5 4.5375L10.4898 3.37522L9.5 2.53237ZM8.1225 16.7349L7.24821 17.697L7.25101 17.6995L8.1225 16.7349ZM9.5 17.9794L8.62851 18.944L9.50332 19.7343L10.3751 18.9407L9.5 17.9794ZM10.8775 16.7254L10.0042 15.7624L10.0024 15.7641L10.8775 16.7254ZM13.775 -0.753125C11.7284 -0.753125 9.78441 0.193259 8.51024 1.68953L10.4898 3.37522C11.2866 2.43949 12.5156 1.84687 13.775 1.84687V-0.753125ZM10.4898 1.68953C9.21559 0.193259 7.27162 -0.753125 5.225 -0.753125V1.84687C6.48438 1.84687 7.71341 2.43949 8.51024 3.37522L10.4898 1.68953ZM5.225 -0.753125C1.58103 -0.753125 -1.3 2.1279 -1.3 5.77187H1.3C1.3 3.56385 3.01697 1.84687 5.225 1.84687V-0.753125ZM-1.3 5.77187C-1.3 7.99438 -0.288718 9.90963 1.22002 11.7555C2.7138 13.583 4.82841 15.498 7.24821 17.697L8.99679 15.7728C6.52409 13.5257 4.57745 11.7547 3.23311 10.11C1.90372 8.48361 1.3 7.14036 1.3 5.77187H-1.3ZM7.25101 17.6995L8.62851 18.944L10.3715 17.0147L8.99399 15.7702L7.25101 17.6995ZM10.3751 18.9407L11.7526 17.6867L10.0024 15.7641L8.62487 17.0181L10.3751 18.9407ZM11.7508 17.6884C14.1709 15.4939 16.2856 13.5813 17.7797 11.7546C19.2887 9.90971 20.3 7.9944 20.3 5.77187H17.7C17.7 7.14035 17.0963 8.48354 15.7672 10.1085C14.4231 11.7517 12.4766 13.5204 10.0042 15.7624L11.7508 17.6884ZM20.3 5.77187C20.3 2.1279 17.419 -0.753125 13.775 -0.753125V1.84687C15.983 1.84687 17.7 3.56385 17.7 5.77187H20.3Z" fill="black" mask="url(#path-1-inside-1)"/>
</svg>
