<svg width="20" height="21" viewBox="-1 -2 20 21" fill="none" xmlns="http://www.w3.org/2000/svg">
<path fill-rule="evenodd" clip-rule="evenodd" d="M13.05 0C11.484 0 9.981 0.729 9 1.881C8.019 0.729 6.516 0 4.95 0C2.178 0 0 2.178 0 4.95C0 8.352 3.06 11.124 7.695 15.336L9 16.515L10.305 15.327C14.94 11.124 18 8.352 18 4.95C18 2.178 15.822 0 13.05 0ZM9.08994 13.9949L8.99994 14.0849L8.90994 13.9949C4.62594 10.1159 1.79994 7.55094 1.79994 4.94994C1.79994 3.14994 3.14994 1.79994 4.94994 1.79994C6.33594 1.79994 7.68594 2.69094 8.16294 3.92394H9.84594C10.3139 2.69094 11.6639 1.79994 13.0499 1.79994C14.8499 1.79994 16.1999 3.14994 16.1999 4.94994C16.1999 7.55094 13.3739 10.1159 9.08994 13.9949Z" fill="black"/>
</svg>
