<svg width="44" height="44" viewBox="0 0 44 44" fill="none" xmlns="http://www.w3.org/2000/svg">
<path fill-rule="evenodd" clip-rule="evenodd" d="M25.05 15C23.484 15 21.981 15.729 21 16.881C20.019 15.729 18.516 15 16.95 15C14.178 15 12 17.178 12 19.95C12 23.352 15.06 26.124 19.695 30.336L21 31.515L22.305 30.327C26.94 26.124 30 23.352 30 19.95C30 17.178 27.822 15 25.05 15ZM21.0899 28.9949L20.9999 29.0849L20.9099 28.9949C16.6259 25.1159 13.7999 22.5509 13.7999 19.9499C13.7999 18.1499 15.1499 16.7999 16.9499 16.7999C18.3359 16.7999 19.6859 17.6909 20.1629 18.9239H21.8459C22.3139 17.6909 23.6639 16.7999 25.0499 16.7999C26.8499 16.7999 28.1999 18.1499 28.1999 19.9499C28.1999 22.5509 25.3739 25.1159 21.0899 28.9949Z" fill="black"/>
</svg>
