<svg width="38" height="44" viewBox="0 0 18 44" fill="none" xmlns="http://www.w3.org/2000/svg">
<path d="M15.5797 23.0689V13.0321C15.5797 12.6513 15.2717 12.3521 14.8797 12.3521C14.4877 12.3521 14.1797 12.6513 14.1797 13.0321V23.0689C13.1437 23.3681 12.3877 24.2929 12.3877 25.4081C12.3877 26.496 13.1437 27.448 14.1797 27.72V30.1952C14.1797 30.576 14.4877 30.8752 14.8797 30.8752C15.2717 30.8752 15.5797 30.576 15.5797 30.1952V27.72C16.6157 27.4208 17.3717 26.496 17.3717 25.4081C17.3717 24.2929 16.6157 23.3681 15.5797 23.0689ZM14.8797 26.4417C14.2637 26.4417 13.7877 25.9521 13.7877 25.3809C13.7877 24.8097 14.2637 24.3201 14.8797 24.3201C15.4957 24.3201 15.9717 24.8097 15.9717 25.3809C15.9717 25.9521 15.4957 26.4417 14.8797 26.4417Z" fill="black"/>
<path d="M9.98009 14.9089V13.0321C9.98009 12.6513 9.67209 12.3521 9.28009 12.3521C8.88809 12.3521 8.58009 12.6513 8.58009 13.0321V14.9089C7.54409 15.2081 6.78809 16.1329 6.78809 17.2481C6.78809 18.3361 7.54409 19.2881 8.58009 19.5601V30.1952C8.58009 30.576 8.88809 30.8752 9.28009 30.8752C9.67209 30.8752 9.98009 30.576 9.98009 30.1952V19.5601C11.0161 19.2609 11.7721 18.3361 11.7721 17.2481C11.7721 16.1329 11.0161 15.2081 9.98009 14.9089ZM9.28009 18.2817C8.66409 18.2817 8.18809 17.7921 8.18809 17.2209C8.18809 16.6497 8.66409 16.1601 9.28009 16.1601C9.89609 16.1601 10.3721 16.6497 10.3721 17.2209C10.3721 17.7921 9.89609 18.2817 9.28009 18.2817Z" fill="black"/>
<path d="M3.81993 19.8049V13.0321C3.81993 12.6513 3.51193 12.3521 3.11993 12.3521C2.72793 12.3521 2.41993 12.6513 2.41993 13.0321V19.8049C1.38393 20.1041 0.62793 21.0289 0.62793 22.1441C0.62793 23.232 1.38393 24.1841 2.41993 24.456V30.1952C2.41993 30.576 2.72793 30.8752 3.11993 30.8752C3.51193 30.8752 3.81993 30.576 3.81993 30.1952V24.456C4.85593 24.1568 5.61193 23.232 5.61193 22.1441C5.61193 21.0289 4.85593 20.1041 3.81993 19.8049ZM3.11993 23.1777C2.50393 23.1777 2.02793 22.6881 2.02793 22.1169C2.02793 21.5457 2.50393 21.0561 3.11993 21.0561C3.73593 21.0561 4.21193 21.5457 4.21193 22.1169C4.21193 22.6881 3.73593 23.1777 3.11993 23.1777Z" fill="black"/>
</svg>
