<svg width="20" height="14" viewBox="0 0 20 14" fill="none" xmlns="http://www.w3.org/2000/svg">
<path d="M18.6364 0H1.36364C0.611591 0 0 0.588656 0 1.3125V12.6875C0 13.4113 0.611591 14 1.36364 14H18.6364C19.3884 14 20 13.4113 20 12.6875V1.3125C20 0.588656 19.3884 0 18.6364 0ZM1.36364 13.125C1.11318 13.125 0.909091 12.929 0.909091 12.6875V10.8025L6.36364 5.82947L14.3652 13.125H1.36364ZM19.0909 12.6875C19.0909 12.929 18.8868 13.125 18.6364 13.125H15.6864L13.4766 11.1101L15.9091 8.89219L19.0909 11.7937V12.6875ZM19.0909 10.5884L16.2216 7.97191C16.0466 7.81222 15.7716 7.81222 15.5966 7.97191L12.8161 10.5077L6.67614 4.90897C6.50114 4.74928 6.22614 4.74928 6.05114 4.90897L0.909091 9.59722V1.3125C0.909091 1.071 1.11318 0.875 1.36364 0.875H18.6364C18.8868 0.875 19.0909 1.071 19.0909 1.3125V10.5884ZM13.1818 2.1875C11.9286 2.1875 10.9091 3.16881 10.9091 4.375C10.9091 5.58119 11.9286 6.5625 13.1818 6.5625C14.435 6.5625 15.4545 5.58119 15.4545 4.375C15.4545 3.16881 14.435 2.1875 13.1818 2.1875ZM13.1818 5.6875C12.4298 5.6875 11.8182 5.09884 11.8182 4.375C11.8182 3.65116 12.4298 3.0625 13.1818 3.0625C13.9339 3.0625 14.5455 3.65116 14.5455 4.375C14.5455 5.09884 13.9339 5.6875 13.1818 5.6875Z" fill="black"/>
</svg>
