<svg width="28" height="28" viewBox="0 0 28 28" fill="none" xmlns="http://www.w3.org/2000/svg">
<path d="M4 5V4H3V5H4ZM24 5H25V4H24V5ZM4 21H3V22H4V21ZM19.5455 21L20.2136 20.256L19.9285 20H19.5455V21ZM24 25L23.3319 25.744L25 25H24ZM4 6H24V4H4V6ZM5 21V5H3V21H5ZM19.5455 20H4V22H19.5455V20ZM24.6681 24.256L20.2136 20.256L18.8773 21.744L23.3319 25.744L24.6681 24.256ZM23 5V25H25V5H23Z" fill="black"/>
<path d="M8 14L15 14" stroke="black" stroke-width="2"/>
<path d="M8 10H19" stroke="black" stroke-width="2"/>
</svg>
