<svg width="11" height="17" viewBox="0 0 11 17" fill="none" xmlns="http://www.w3.org/2000/svg">
<path d="M5.5 0C6.00417 0 6.49115 0.0636393 6.96094 0.190918C7.43073 0.318197 7.86901 0.49528 8.27578 0.722168C8.68255 0.949056 9.05208 1.22575 9.38438 1.55225C9.71667 1.87874 10.0031 2.23844 10.2438 2.63135C10.4844 3.02425 10.6706 3.44759 10.8023 3.90137C10.9341 4.35514 11 4.82552 11 5.3125C11 5.69434 10.9542 6.0568 10.8625 6.3999C10.7708 6.743 10.6333 7.08887 10.45 7.4375L5.5 17L0.55 7.4375C0.372396 7.0944 0.23776 6.7513 0.146094 6.4082C0.0544271 6.0651 0.00572917 5.69987 0 5.3125C0 4.82552 0.0658854 4.35514 0.197656 3.90137C0.329427 3.44759 0.51276 3.02425 0.747656 2.63135C0.982552 2.23844 1.26901 1.88151 1.60703 1.56055C1.94505 1.23958 2.31745 0.962891 2.72422 0.730469C3.13099 0.498047 3.56927 0.318197 4.03906 0.190918C4.50885 0.0636393 4.99583 0 5.5 0ZM9.59062 7.02246V7.01416L9.59922 7.00586C9.74245 6.74577 9.8513 6.47184 9.92578 6.18408C10.0003 5.89632 10.0375 5.60579 10.0375 5.3125C10.0375 4.70931 9.92005 4.14209 9.68516 3.61084C9.45026 3.07959 9.1237 2.61475 8.70547 2.21631C8.28724 1.81787 7.80599 1.50521 7.26172 1.27832C6.71745 1.05143 6.13021 0.935221 5.5 0.929688C4.87552 0.929688 4.28828 1.04313 3.73828 1.27002C3.18828 1.49691 2.70703 1.81234 2.29453 2.21631C1.88203 2.62028 1.55833 3.08512 1.32344 3.61084C1.08854 4.13656 0.968229 4.70378 0.9625 5.3125C0.9625 5.60579 0.99974 5.89632 1.07422 6.18408C1.1487 6.47184 1.25755 6.74577 1.40078 7.00586V7.01416L1.40938 7.02246L5.5 14.9248L9.59062 7.02246ZM5.5 2.19141C5.94688 2.19141 6.3651 2.27165 6.75469 2.43213C7.14427 2.59261 7.48802 2.81673 7.78594 3.10449C8.08385 3.39225 8.31302 3.72152 8.47344 4.09229C8.63385 4.46305 8.71979 4.86979 8.73125 5.3125C8.73125 5.74414 8.64818 6.14811 8.48203 6.52441C8.31589 6.90072 8.08385 7.23275 7.78594 7.52051C7.48802 7.80827 7.14714 8.02962 6.76328 8.18457C6.37943 8.33952 5.95833 8.42253 5.5 8.43359C5.05312 8.43359 4.6349 8.35335 4.24531 8.19287C3.85573 8.03239 3.51198 7.80827 3.21406 7.52051C2.91615 7.23275 2.68698 6.90348 2.52656 6.53271C2.36615 6.16195 2.28021 5.75521 2.26875 5.3125C2.26875 4.88086 2.35182 4.47689 2.51797 4.10059C2.68411 3.72428 2.91615 3.39225 3.21406 3.10449C3.51198 2.81673 3.85286 2.59538 4.23672 2.44043C4.62057 2.28548 5.04167 2.20247 5.5 2.19141ZM5.5 7.50391C5.8151 7.50391 6.11016 7.44857 6.38516 7.33789C6.66016 7.22721 6.90078 7.0695 7.10703 6.86475C7.31328 6.65999 7.4737 6.42757 7.58828 6.16748C7.70286 5.90739 7.76302 5.6224 7.76875 5.3125C7.76875 5.00814 7.71146 4.72314 7.59688 4.45752C7.48229 4.19189 7.31901 3.95947 7.10703 3.76025C6.89505 3.56104 6.65443 3.40609 6.38516 3.29541C6.11589 3.18473 5.82083 3.12663 5.5 3.12109C5.1849 3.12109 4.88984 3.17643 4.61484 3.28711C4.33984 3.39779 4.09922 3.5555 3.89297 3.76025C3.68672 3.96501 3.5263 4.19743 3.41172 4.45752C3.29714 4.71761 3.23698 5.0026 3.23125 5.3125C3.23125 5.61686 3.28854 5.90186 3.40313 6.16748C3.51771 6.43311 3.68099 6.66553 3.89297 6.86475C4.10495 7.06396 4.34557 7.21891 4.61484 7.32959C4.88411 7.44027 5.17917 7.49837 5.5 7.50391Z" fill="black"/>
</svg>
