<svg width="19" height="20" viewBox="0 0 19 20" fill="none" xmlns="http://www.w3.org/2000/svg">
<path d="M16.583 9.71092V9.8789C16.583 9.93489 16.5861 9.99088 16.5923 10.0469V10.2149C16.5923 10.2708 16.5892 10.3268 16.583 10.3828L19 11.8853L17.5162 15.4594L14.7446 14.8249C14.5953 14.9866 14.4398 15.1422 14.278 15.2915L14.9126 18.0631L11.3384 19.5469L9.83595 17.1299H9.66798C9.61198 17.1299 9.55599 17.133 9.5 17.1392H9.33202C9.27603 17.1392 9.22004 17.1361 9.16405 17.1299L7.66159 19.5469L4.08743 18.0631L4.722 15.2915C4.56025 15.1422 4.40472 14.9866 4.2554 14.8249L1.48379 15.4594L0 11.8853L2.41699 10.3828V10.2149C2.41699 10.1589 2.41388 10.1029 2.40766 10.0469V9.8789C2.40766 9.82291 2.41077 9.76691 2.41699 9.71092L0 8.20847L1.48379 4.6343L4.2554 5.26888C4.40472 5.10712 4.56025 4.95159 4.722 4.80228L4.08743 2.03067L7.66159 0.546875L9.16405 2.96387H9.33202C9.38802 2.96387 9.44401 2.96076 9.5 2.95454H9.66798C9.72397 2.95454 9.77996 2.95765 9.83595 2.96387L11.3384 0.546875L14.9126 2.03067L14.278 4.80228C14.4398 4.95159 14.5953 5.10712 14.7446 5.26888L17.5162 4.6343L19 8.20847L16.583 9.71092ZM15.4912 10.9241C15.5036 10.7748 15.516 10.6286 15.5285 10.4855C15.5409 10.3424 15.5472 10.1931 15.5472 10.0375C15.5472 9.89445 15.5409 9.74825 15.5285 9.59894C15.516 9.44963 15.5036 9.30342 15.4912 9.16033L17.6935 7.78853L16.891 5.84746L14.362 6.43538C14.1691 6.19897 13.9732 5.98122 13.7741 5.78214C13.575 5.58306 13.3541 5.38397 13.1115 5.18489L13.6994 2.65591L11.7583 1.85336L10.3772 4.05572C10.2341 4.04327 10.0879 4.03083 9.93861 4.01839C9.78929 4.00594 9.64309 3.99972 9.5 3.99972C9.35069 3.99972 9.20449 4.00594 9.06139 4.01839C8.9183 4.03083 8.76899 4.04327 8.61346 4.05572L7.24165 1.85336L5.30059 2.65591L5.88851 5.18489C5.6521 5.37775 5.43435 5.57373 5.23527 5.77281C5.03618 5.97189 4.8371 6.19275 4.63802 6.43538L2.10904 5.84746L1.30648 7.78853L3.50884 9.16966C3.4964 9.31898 3.48396 9.46518 3.47151 9.60827C3.45907 9.75136 3.45285 9.90067 3.45285 10.0562C3.45285 10.1993 3.45907 10.3455 3.47151 10.4948C3.48396 10.6441 3.4964 10.7903 3.50884 10.9334L1.30648 12.3052L2.10904 14.2463L4.63802 13.6584C4.83088 13.8948 5.02685 14.1125 5.22593 14.3116C5.42502 14.5107 5.64587 14.7098 5.88851 14.9089L5.30059 17.4378L7.24165 18.2404L8.62279 16.038C8.76588 16.0505 8.91208 16.0629 9.06139 16.0754C9.21071 16.0878 9.35691 16.094 9.5 16.094C9.64931 16.094 9.79551 16.0878 9.93861 16.0754C10.0817 16.0629 10.231 16.0505 10.3865 16.038L11.7583 18.2404L13.6994 17.4378L13.1115 14.9089C13.3479 14.716 13.5657 14.52 13.7647 14.3209C13.9638 14.1219 14.1629 13.901 14.362 13.6584L16.891 14.2463L17.6935 12.3052L15.4912 10.9241ZM9.5 6.53803C9.98526 6.53803 10.4394 6.62824 10.8625 6.80866C11.2855 6.98908 11.6588 7.24105 11.9823 7.56456C12.3058 7.88807 12.5547 8.25824 12.7289 8.67507C12.9031 9.0919 12.9964 9.54917 13.0088 10.0469C13.0088 10.5321 12.9186 10.9863 12.7382 11.4094C12.5578 11.8324 12.3058 12.2057 11.9823 12.5292C11.6588 12.8527 11.2886 13.1016 10.8718 13.2758C10.455 13.45 9.99771 13.5433 9.5 13.5557C9.01474 13.5557 8.56058 13.4655 8.13752 13.2851C7.71447 13.1047 7.34119 12.8527 7.01768 12.5292C6.69417 12.2057 6.44532 11.8355 6.27112 11.4187C6.09692 11.0019 6.0036 10.5446 5.99116 10.0469C5.99116 9.56161 6.08137 9.10745 6.26179 8.6844C6.44221 8.26135 6.69417 7.88807 7.01768 7.56456C7.34119 7.24105 7.71136 6.99219 8.12819 6.818C8.54502 6.6438 9.00229 6.55048 9.5 6.53803ZM9.5 12.5105C9.84217 12.5105 10.1626 12.4483 10.4612 12.3239C10.7598 12.1995 11.0211 12.0222 11.2451 11.792C11.4691 11.5618 11.6433 11.3005 11.7677 11.0081C11.8921 10.7157 11.9574 10.3953 11.9637 10.0469C11.9637 9.7047 11.9014 9.3843 11.777 9.08568C11.6526 8.78705 11.4753 8.52575 11.2451 8.30179C11.0149 8.07782 10.7536 7.90362 10.4612 7.77919C10.1688 7.65477 9.8484 7.58944 9.5 7.58322C9.15783 7.58322 8.83743 7.64543 8.5388 7.76986C8.24018 7.89429 7.97888 8.0716 7.75491 8.30179C7.53094 8.53198 7.35675 8.79327 7.23232 9.08568C7.10789 9.37808 7.04257 9.69848 7.03635 10.0469C7.03635 10.389 7.09856 10.7094 7.22299 11.0081C7.34741 11.3067 7.52472 11.568 7.75491 11.792C7.9851 12.0159 8.2464 12.1901 8.5388 12.3146C8.83121 12.439 9.1516 12.5043 9.5 12.5105Z" fill="black"/>
</svg>
