<svg width="16" height="16" viewBox="0 0 16 16" fill="none" xmlns="http://www.w3.org/2000/svg">
<path d="M16 12H11.9062C11.8542 12.151 11.7812 12.2865 11.6875 12.4062C11.5938 12.526 11.487 12.6302 11.3672 12.7188C11.2474 12.8073 11.112 12.875 10.9609 12.9219C10.8099 12.9688 10.6562 12.9948 10.5 13C10.3438 13 10.1927 12.9766 10.0469 12.9297C9.90104 12.8828 9.76562 12.8151 9.64062 12.7266C9.51562 12.638 9.40625 12.5339 9.3125 12.4141C9.21875 12.2943 9.14583 12.1562 9.09375 12H4.90625C4.85417 12.151 4.78125 12.2865 4.6875 12.4062C4.59375 12.526 4.48698 12.6302 4.36719 12.7188C4.2474 12.8073 4.11198 12.875 3.96094 12.9219C3.8099 12.9688 3.65625 12.9948 3.5 13C3.34375 13 3.19271 12.9766 3.04688 12.9297C2.90104 12.8828 2.76562 12.8151 2.64062 12.7266C2.51562 12.638 2.40625 12.5339 2.3125 12.4141C2.21875 12.2943 2.14583 12.1562 2.09375 12H0V3H11V4H13.8125L16 8.38281V12ZM1 11H2.09375C2.14583 10.8542 2.21875 10.7188 2.3125 10.5938C2.40625 10.4688 2.51302 10.3646 2.63281 10.2812C2.7526 10.1979 2.88802 10.1302 3.03906 10.0781C3.1901 10.026 3.34375 10 3.5 10C3.65625 10 3.80729 10.0234 3.95312 10.0703C4.09896 10.1172 4.23438 10.1849 4.35938 10.2734C4.48438 10.362 4.59375 10.4688 4.6875 10.5938C4.78125 10.7188 4.85417 10.8542 4.90625 11H9.09375C9.16667 10.7865 9.28125 10.6016 9.4375 10.4453C9.59375 10.2891 9.78125 10.1719 10 10.0938V4H1V11ZM3.5 12C3.63542 12 3.7526 11.9505 3.85156 11.8516C3.95052 11.7526 4 11.6354 4 11.5C4 11.3646 3.95052 11.2474 3.85156 11.1484C3.7526 11.0495 3.63542 11 3.5 11C3.36458 11 3.2474 11.0495 3.14844 11.1484C3.04948 11.2474 3 11.3646 3 11.5C3 11.6354 3.04948 11.7526 3.14844 11.8516C3.2474 11.9505 3.36458 12 3.5 12ZM10.5 12C10.6354 12 10.7526 11.9505 10.8516 11.8516C10.9505 11.7526 11 11.6354 11 11.5C11 11.3646 10.9505 11.2474 10.8516 11.1484C10.7526 11.0495 10.6354 11 10.5 11C10.3646 11 10.2474 11.0495 10.1484 11.1484C10.0495 11.2474 10 11.3646 10 11.5C10 11.6354 10.0495 11.7526 10.1484 11.8516C10.2474 11.9505 10.3646 12 10.5 12ZM15 8.61719L13.1875 5H11V10.0938C11.2135 10.1667 11.3984 10.2812 11.5547 10.4375C11.7109 10.5938 11.8281 10.7812 11.9062 11H15V8.61719Z" fill="black"/>
</svg>
