<svg width="66" height="66" viewBox="0 0 66 66" fill="none" xmlns="http://www.w3.org/2000/svg">
<g filter="url(#filter0_d)">
<circle cx="33" cy="31" r="23" fill="white"/>
</g>
<path fill-rule="evenodd" clip-rule="evenodd" d="M32.596 21.2248C32.4483 21.3723 32.3274 21.8623 32.3274 22.3139C32.3274 23.1018 32.2907 23.1407 31.4113 23.2811C28.5709 23.7345 25.9202 26.2575 25.3399 29.0598C25.0739 30.3434 25.0726 30.3452 24.2503 30.3452C23.7915 30.3452 23.3037 30.4936 23.1483 30.6805C22.7187 31.1976 23.2621 31.6864 24.2666 31.6864C25.0757 31.6864 25.1113 31.7195 25.2521 32.5992C25.7144 35.4859 28.461 38.1894 31.4878 38.7376C32.2824 38.8813 32.3274 38.9345 32.3274 39.7314C32.3274 40.738 32.8161 41.2814 33.3348 40.8516C33.5245 40.6944 33.6707 40.2071 33.6707 39.7314C33.6707 38.9352 33.7163 38.8811 34.5102 38.7335C37.0244 38.2666 39.4602 36.2323 40.3503 33.8568C40.6167 33.1457 40.8348 32.3664 40.8348 32.125C40.8348 31.7647 40.9895 31.6864 41.703 31.6864C42.7353 31.6864 43.2852 31.2043 42.8497 30.6805C42.6926 30.4916 42.2047 30.3452 41.7314 30.3452C40.9223 30.3452 40.8867 30.3121 40.7459 29.4325C40.2863 26.5634 37.4583 23.7396 34.5848 23.2807C33.7076 23.1407 33.6707 23.1016 33.6707 22.3139C33.6707 21.1903 33.1544 20.6673 32.596 21.2248ZM36.1078 25.0996C40.9118 27.7106 40.8592 34.5862 36.0169 36.9517C31.5908 39.1138 26.6462 36.2469 26.3306 31.3353C26.2403 29.9332 26.3046 29.5548 26.8267 28.414C28.1135 25.6021 30.295 24.2566 33.3498 24.3912C34.5794 24.4453 35.1942 24.6031 36.1078 25.0996ZM31.2058 27.9421C30.1343 28.6702 29.6057 29.4888 29.4897 30.5991C29.2618 32.7845 31.2277 34.7474 33.4163 34.5198C34.5335 34.4036 35.3453 33.8778 36.0973 32.7836C36.7721 31.8016 36.7049 29.8959 35.9585 28.8493C34.9481 27.4323 32.6122 26.9865 31.2058 27.9421Z" fill="black"/>
<defs>
<filter id="filter0_d" x="0" y="0" width="66" height="66" filterUnits="userSpaceOnUse" color-interpolation-filters="sRGB">
<feFlood flood-opacity="0" result="BackgroundImageFix"/>
<feColorMatrix in="SourceAlpha" type="matrix" values="0 0 0 0 0 0 0 0 0 0 0 0 0 0 0 0 0 0 127 0"/>
<feOffset dy="2"/>
<feGaussianBlur stdDeviation="5"/>
<feColorMatrix type="matrix" values="0 0 0 0 0 0 0 0 0 0 0 0 0 0 0 0 0 0 0.15 0"/>
<feBlend mode="normal" in2="BackgroundImageFix" result="effect1_dropShadow"/>
<feBlend mode="normal" in="SourceGraphic" in2="effect1_dropShadow" result="shape"/>
</filter>
</defs>
</svg>
