<svg width="20" height="20" viewBox="0 0 20 20" fill="none" xmlns="http://www.w3.org/2000/svg">
<path fill-rule="evenodd" clip-rule="evenodd" d="M9.59604 0.224771C9.44828 0.372308 9.32739 0.862307 9.32739 1.31386C9.32739 2.10184 9.29067 2.14073 8.41127 2.28111C5.57091 2.73445 2.92018 5.25755 2.33989 8.05984C2.07392 9.34341 2.07257 9.3452 1.25026 9.3452C0.791535 9.3452 0.303702 9.49363 0.148329 9.68051C-0.281296 10.1976 0.26206 10.6864 1.26661 10.6864C2.07571 10.6864 2.1113 10.7195 2.25212 11.5992C2.71444 14.4859 5.46099 17.1894 8.48784 17.7376C9.28239 17.8813 9.32739 17.9345 9.32739 18.7314C9.32739 19.738 9.81612 20.2814 10.3348 19.8516C10.5245 19.6944 10.6707 19.2071 10.6707 18.7314C10.6707 17.9352 10.7163 17.8811 11.5102 17.7335C14.0244 17.2666 16.4602 15.2323 17.3503 12.8568C17.6167 12.1457 17.8348 11.3664 17.8348 11.125C17.8348 10.7647 17.9895 10.6864 18.703 10.6864C19.7353 10.6864 20.2852 10.2043 19.8497 9.68051C19.6926 9.49162 19.2047 9.3452 18.7314 9.3452C17.9223 9.3452 17.8867 9.31211 17.7459 8.43249C17.2863 5.56335 14.4583 2.7396 11.5848 2.28067C10.7076 2.14073 10.6707 2.10161 10.6707 1.31386C10.6707 0.190346 10.1544 -0.332737 9.59604 0.224771ZM13.1078 4.09961C17.9118 6.71056 17.8592 13.5862 13.0169 15.9517C8.59082 18.1138 3.64622 15.2469 3.33055 10.3353C3.24033 8.93322 3.30458 8.55476 3.82667 7.41404C5.11353 4.60213 7.29501 3.25664 10.3498 3.39121C11.5794 3.44531 12.1942 3.60313 13.1078 4.09961ZM8.20575 6.94215C7.13426 7.67021 6.60569 8.48882 6.48972 9.59914C6.26181 11.7845 8.22769 13.7474 10.4163 13.5198C11.5335 13.4036 12.3453 12.8778 13.0973 11.7836C13.7721 10.8016 13.7049 8.89588 12.9585 7.84927C11.9481 6.43225 9.61216 5.98651 8.20575 6.94215Z" fill="black"/>
</svg>
