<svg width="100" height="226" viewBox="0 13 40 63" fill="none" xmlns="http://www.w3.org/2000/svg">
<g opacity="0.3" filter="url(#filter0_f)">
<path d="M28.9055 45.2487C31.0122 44.7898 32.6337 48.0035 30.8995 49.3071C29.1653 50.6106 20.5311 53.193 20.5311 53.193C20.5311 53.193 26.7988 45.7076 28.9055 45.2487Z" fill="black"/>
</g>
<g filter="url(#filter1_d)">
<path d="M20.0004 54.1001C20.0004 54.1001 20.0706 46.5387 16.4355 39.4394C12.8004 32.3401 6.56043 24.6601 6.56043 24.6601L33.4404 24.6601C33.4404 24.6601 27.2004 32.3401 23.6122 39.3801C20.0241 46.4201 20.0004 54.1001 20.0004 54.1001Z" fill="black"/>
<circle cx="20" cy="16" r="13" fill="white" stroke="black" stroke-width="6"/>
</g>
<defs>
<filter id="filter0_f" x="14.9468" y="40.5977" width="21.3353" height="16.8503" filterUnits="userSpaceOnUse" color-interpolation-filters="sRGB">
<feFlood flood-opacity="0" result="BackgroundImageFix"/>
<feBlend mode="normal" in="SourceGraphic" in2="BackgroundImageFix" result="shape"/>
<feGaussianBlur stdDeviation="2" result="effect1_foregroundBlur"/>
</filter>
<filter id="filter1_d" x="0" y="0" width="40" height="62.1002" filterUnits="userSpaceOnUse" color-interpolation-filters="sRGB">
<feFlood flood-opacity="0" result="BackgroundImageFix"/>
<feColorMatrix in="SourceAlpha" type="matrix" values="0 0 0 0 0 0 0 0 0 0 0 0 0 0 0 0 0 0 127 0"/>
<feOffset dy="4"/>
<feGaussianBlur stdDeviation="2"/>
<feColorMatrix type="matrix" values="0 0 0 0 0 0 0 0 0 0 0 0 0 0 0 0 0 0 0.25 0"/>
<feBlend mode="normal" in2="BackgroundImageFix" result="effect1_dropShadow"/>
<feBlend mode="normal" in="SourceGraphic" in2="effect1_dropShadow" result="shape"/>
</filter>
</defs>
</svg>
